<?xml version="1.0" encoding="UTF-8" standalone="no"?>
<!-- Created with Inkscape (http://www.inkscape.org/) -->

<svg
   xmlns:dc="http://purl.org/dc/elements/1.1/"
   xmlns:cc="http://creativecommons.org/ns#"
   xmlns:rdf="http://www.w3.org/1999/02/22-rdf-syntax-ns#"
   xmlns:svg="http://www.w3.org/2000/svg"
   xmlns="http://www.w3.org/2000/svg"
   xmlns:sodipodi="http://sodipodi.sourceforge.net/DTD/sodipodi-0.dtd"
   xmlns:inkscape="http://www.inkscape.org/namespaces/inkscape"
   version="1.1"
   id="svg4617"
   width="512"
   height="512"
   viewBox="0 0 512 512"
   sodipodi:docname="approval.svg"
   inkscape:version="0.92.4 (5da689c313, 2019-01-14)">
  <metadata
     id="metadata4623">
    <rdf:RDF>
      <cc:Work
         rdf:about="">
        <dc:format>image/svg+xml</dc:format>
        <dc:type
           rdf:resource="http://purl.org/dc/dcmitype/StillImage" />
        <dc:title></dc:title>
      </cc:Work>
    </rdf:RDF>
  </metadata>
  <defs
     id="defs4621" />
  <sodipodi:namedview
     pagecolor="#ffffff"
     bordercolor="#666666"
     borderopacity="1"
     objecttolerance="10"
     gridtolerance="10"
     guidetolerance="10"
     inkscape:pageopacity="0"
     inkscape:pageshadow="2"
     inkscape:window-width="3840"
     inkscape:window-height="1999"
     id="namedview4619"
     showgrid="false"
     inkscape:zoom="2.6074563"
     inkscape:cx="35.989447"
     inkscape:cy="252.65975"
     inkscape:window-x="0"
     inkscape:window-y="0"
     inkscape:window-maximized="1"
     inkscape:current-layer="svg4617" />
  <path
     style="fill:#84be69;fill-opacity:1"
     d="m 248.31688,507.02172 c -2.13925,-1.44945 -13.14902,-10.18317 -24.46615,-19.40826 l -20.57661,-16.77289 -26.42338,5.39861 c -27.85755,5.69163 -34.24056,6.33949 -38.87043,3.94529 -4.69766,-2.42925 -10.08144,-12.87452 -24.58243,-47.69322 L 108.5394,420.82543 91.98337,416.12114 C 69.599209,409.76081 54.507429,405.00841 51.102969,403.2479 c -1.55279,-0.80298 -4.07727,-3.3549 -5.60995,-5.67094 l -2.78669,-4.21097 2.11582,-26.60446 c 1.16371,-14.63245 2.11344,-28.35123 2.11051,-30.48619 -0.005,-3.72522 -0.7881,-4.643 -19.41893,-22.76184 -18.45263,-17.94554 -25.59325,-26.25772 -25.58081,-29.77786 0.0157,-4.45149 3.13123,-10.59704 14.80319,-29.20034 7.03207,-11.20802 13.81122,-22.20444 15.06479,-24.4365 l 2.27921,-4.05827 -8.19158,-24.94173 c -8.9664,-27.30085 -10.62896,-36.24744 -7.5961,-40.87616 2.22817,-3.40062 9.79574,-8.38848 32.66726,-21.53133 10.70721,-6.15276 20.00941,-11.71501 20.67156,-12.36054 0.66215,-0.64553 3.21729,-13.41064 5.67809,-28.3669 2.67552,-16.261332 5.29142,-29.040742 6.5071,-31.788981 3.26702,-7.385653 6.18838,-8.215183 33.663321,-9.558843 12.62117,-0.61724 25.87258,-1.42301 29.44758,-1.79061 l 6.5,-0.66835 16.0707,-21.32147 c 8.83889,-11.72681 17.2532,-22.574342 18.69849,-24.105622 1.44528,-1.53128 4.6951,-3.36296 7.22182,-4.0704 4.29644,-1.2029304 5.04999,-1.1027004 11.63261,1.54726 3.87122,1.55843 16.69764,7.41822 28.50316,13.02175 l 21.46457,10.188252 23.70432,-11.282202 c 27.35711,-13.02076 33.54901,-15.1789804 38.68513,-13.4839 4.02328,1.3278 10.12235,8.36292 28.3206,32.667062 6.65538,8.8884 12.56458,16.44743 13.13155,16.79784 0.56698,0.35041 13.97126,1.31696 29.78729,2.1479 23.8388,1.25244 29.49189,1.83613 33.05708,3.41318 6.88888,3.04728 7.65776,5.677198 15.48825,52.977364 l 2.23442,13.49701 14.5,8.39332 c 37.35282,21.62166 37.61755,21.79425 39.58869,25.81075 3.07114,6.2579 2.22497,11.00633 -6.96986,39.11259 -8.52266,26.05158 -8.59119,26.3421 -6.95891,29.5 0.90669,1.75412 7.13472,11.96431 13.84008,22.68931 14.20832,22.72575 15.101,24.35623 16.02162,29.26353 1.09351,5.82893 -2.29601,10.26424 -24.59858,32.18819 l -20.27126,19.92711 2.32774,30.27924 2.32774,30.27924 -2.65475,4.01159 c -1.46011,2.20638 -4.34174,4.86624 -6.40363,5.91081 -3.71518,1.88215 -20.07963,6.9807 -42.24888,13.16317 -6.325,1.76389 -12.20956,3.57946 -13.0768,4.03459 -0.86724,0.45513 -5.75489,10.64089 -10.86145,22.63502 -14.92249,35.04948 -17.28645,38.33187 -27.56175,38.26986 -2.75,-0.0166 -16.863,-2.43782 -31.36222,-5.38051 l -26.36223,-5.35034 -8.13777,6.60538 c -4.47578,3.63295 -13.53778,11.03265 -20.13778,16.44376 -17.03487,13.9663 -19.88224,15.71936 -25.5319,15.71936 -3.41523,0 -5.74561,-0.7159 -8.57855,-2.63536 z m 5.05862,-134.75731 c 1.97584,-1.50705 7.01593,-7.54772 11.2002,-13.42371 15.47783,-21.73561 105.2491,-157.22992 108.36335,-163.55585 5.64682,-11.47033 3.36168,-15.25953 -17.68792,-29.32994 -12.57541,-8.40592 -16.92803,-10.02896 -22.07946,-8.23316 -4.65655,1.62328 -9.53607,8.46157 -61.14153,85.68533 -18.83655,28.1875 -34.71414,51.25 -35.28355,51.25 -0.5694,0 -13.24917,-12.07722 -28.17727,-26.83826 -14.92809,-14.76104 -28.25462,-27.58604 -29.61449,-28.5 -3.3539,-2.25412 -8.82106,-2.08494 -12.89545,0.39904 -1.85238,1.12931 -8.67112,7.31971 -15.15276,13.75643 -10.92008,10.8444 -11.83682,12.04997 -12.49366,16.43015 -0.38988,2.59986 -0.41278,5.90671 -0.0509,7.34855 0.82846,3.30085 21.96821,25.59374 59.71285,62.97011 29.4428,29.15552 33.62242,32.88679 38.64378,34.49842 5.11773,1.64256 12.75986,0.51524 16.65681,-2.45711 z"
     id="path5212"
     inkscape:connector-curvature="0" />
  <path
     style="fill:none;fill-opacity:1;stroke:#ffffff;stroke-width:0;stroke-miterlimit:10;stroke-dasharray:none;stroke-opacity:1"
     d="m 245.78158,505.61383 c -3.1348,-2.12733 -14.20322,-10.72494 -24.59648,-19.10578 l -18.89685,-15.23789 -27.20238,5.29921 c -14.96131,2.91456 -29.40119,5.29921 -32.08862,5.29921 -5.79622,0 -10.38135,-3.86772 -14.76001,-12.45058 -7.16222,-14.03913 -21.29125,-47.82414 -20.52127,-49.06999 0.45577,-0.73745 -0.12286,-0.97569 -1.28584,-0.52942 -2.53882,0.97424 -52.585775,-13.88211 -57.457822,-17.05625 -7.572965,-4.93378 -8.000533,-8.06714 -5.518011,-40.43796 l 2.280887,-29.7416 -21.983605,-22.02289 C -3.5765153,283.18296 -3.3832542,283.995 11.582822,259.42957 16.980147,250.57036 23.792433,239.35043 26.721232,234.4964 L 32.046324,225.67089 23.971565,199.98 c -4.441117,-14.12999 -8.40935,-28.62227 -8.818294,-32.20509 -0.678496,-5.94438 -0.260315,-6.95682 4.78062,-11.57415 5.980696,-5.47809 48.067538,-30.67086 51.31641,-30.71749 1.092076,-0.0157 1.602396,-1.02185 1.135444,-2.2387 -0.98749,-2.57336 6.175993,-47.190058 8.864264,-55.209763 3.338662,-9.959967 6.345507,-10.995096 37.143301,-12.786844 15.16708,-0.882386 29.06356,-2.199846 30.88106,-2.927688 1.81751,-0.727842 10.30157,-10.304374 18.85346,-21.281182 19.71932,-25.3108085 23.22298,-28.3625835 31.46353,-27.4055055 3.41378,0.3964849 17.52636,5.980169 31.36125,12.4081865 L 256.107,27.72908 276.97448,17.928864 C 311.5376,1.6966286 314.90973,0.7840795 322.33972,5.6523857 c 2.02396,1.3261588 11.33385,12.3428923 20.68864,24.4816303 19.53859,25.353235 14.42242,22.858517 51.45953,25.092388 13.49975,0.814229 26.47679,2.217326 28.83787,3.117992 2.64797,1.010106 5.14794,3.68407 6.52445,6.978538 2.83325,6.780898 10.35862,49.490736 9.37974,53.234056 -0.40434,1.54617 -0.1877,2.47287 0.48143,2.05932 0.66913,-0.41354 1.54433,0.50138 1.9449,2.03316 0.42673,1.63185 10.50342,8.44058 24.33589,16.44355 12.98416,7.51217 25.16081,15.3262 27.05921,17.36451 5.20712,5.59086 4.41649,13.2838 -4.20147,40.88049 -4.20921,13.47887 -7.66085,25.84614 -7.67031,27.48285 -0.009,1.6367 6.54092,13.57315 14.55639,26.52545 13.02634,21.04939 14.57359,24.31868 14.57359,30.79338 v 7.24377 l -21.86523,21.82622 -21.86524,21.82622 2.17837,29.98692 c 2.12446,29.24491 2.10337,30.08984 -0.85301,34.14719 -4.23091,5.80655 -13.17272,9.73893 -38.8902,17.10297 -12.22865,3.5016 -22.71337,6.85427 -23.29936,7.45037 -0.586,0.59611 -4.46126,9.0226 -8.61168,18.72555 -15.31776,35.81022 -19.22002,41.44763 -28.65223,41.39257 -2.55439,-0.0153 -16.67301,-2.41558 -31.37471,-5.33483 -21.30747,-4.23089 -27.22066,-4.93302 -29.14718,-3.46089 -1.32925,1.01574 -7.59429,6.05869 -13.92229,11.20656 -33.69454,27.4107 -37.093,28.91604 -48.22524,21.36151 z m 9.41741,-138.41639 c 5.41652,-5.8497 101.17272,-148.3232 111.21429,-165.47326 10.07309,-17.20389 9.56055,-19.5251 -6.9655,-31.54513 -12.53501,-9.1172 -21.61011,-13.47378 -25.79,-12.38071 -4.49632,1.17581 -9.13528,7.4974 -53.45752,72.84738 -22.35896,32.96669 -41.79289,60.6493 -43.18651,61.5169 -2.0887,1.30033 -7.2988,-2.98622 -29.65538,-24.39864 -14.91684,-14.28686 -28.69207,-26.93876 -30.61163,-28.11531 -5.60528,-3.43563 -10.08322,-1.09876 -24.30952,12.68618 -12.9472,12.54555 -13.37068,13.17694 -13.37068,19.93533 v 6.97944 l 36.78555,37.42216 c 20.23206,20.58219 36.28218,37.92553 35.66695,38.54077 -0.61524,0.61523 -0.0831,0.88851 1.18248,0.60725 1.3946,-0.30991 2.09966,0.39515 1.78975,1.78975 -0.28126,1.2656 -0.0321,1.82187 0.55358,1.23615 0.58572,-0.58571 5.16621,2.34819 10.17888,6.51976 8.28102,6.89154 9.8238,7.58471 16.88124,7.58471 7.00583,0 8.28947,-0.56395 13.09402,-5.75273 z"
     id="path5172"
     inkscape:connector-curvature="0" />
  <path
     style="fill:none;fill-opacity:1;stroke:#ffffff;stroke-width:0;stroke-miterlimit:10;stroke-dasharray:none;stroke-opacity:1"
     d="m 245.78158,505.61383 c -3.1348,-2.12733 -14.20322,-10.72494 -24.59648,-19.10578 l -18.89685,-15.23789 -27.20238,5.29921 c -14.96131,2.91456 -29.40119,5.29921 -32.08862,5.29921 -5.79622,0 -10.38135,-3.86772 -14.76001,-12.45058 -7.16222,-14.03913 -21.29125,-47.82414 -20.52127,-49.06999 0.45577,-0.73745 -0.12286,-0.97569 -1.28584,-0.52942 -2.53882,0.97424 -52.585775,-13.88211 -57.457822,-17.05625 -7.572965,-4.93378 -8.000533,-8.06714 -5.518011,-40.43796 l 2.280887,-29.7416 -21.983605,-22.02289 C -3.5765153,283.18296 -3.3832542,283.995 11.582822,259.42957 16.980147,250.57036 23.792433,239.35043 26.721232,234.4964 L 32.046324,225.67089 23.971565,199.98 c -4.441117,-14.12999 -8.40935,-28.62227 -8.818294,-32.20509 -0.678496,-5.94438 -0.260315,-6.95682 4.78062,-11.57415 5.980696,-5.47809 48.067538,-30.67086 51.31641,-30.71749 1.092076,-0.0157 1.602396,-1.02185 1.135444,-2.2387 -0.98749,-2.57336 6.175993,-47.190058 8.864264,-55.209763 3.338662,-9.959967 6.345507,-10.995096 37.143301,-12.786844 15.16708,-0.882386 29.06356,-2.199846 30.88106,-2.927688 1.81751,-0.727842 10.30157,-10.304374 18.85346,-21.281182 19.71932,-25.3108085 23.22298,-28.3625835 31.46353,-27.4055055 3.41378,0.3964849 17.52636,5.980169 31.36125,12.4081865 L 256.107,27.72908 276.97448,17.928864 C 311.5376,1.6966286 314.90973,0.7840795 322.33972,5.6523857 c 2.02396,1.3261588 11.33385,12.3428923 20.68864,24.4816303 19.53859,25.353235 14.42242,22.858517 51.45953,25.092388 13.49975,0.814229 26.47679,2.217326 28.83787,3.117992 2.64797,1.010106 5.14794,3.68407 6.52445,6.978538 2.83325,6.780898 10.35862,49.490736 9.37974,53.234056 -0.40434,1.54617 -0.1877,2.47287 0.48143,2.05932 0.66913,-0.41354 1.54433,0.50138 1.9449,2.03316 0.42673,1.63185 10.50342,8.44058 24.33589,16.44355 12.98416,7.51217 25.16081,15.3262 27.05921,17.36451 5.20712,5.59086 4.41649,13.2838 -4.20147,40.88049 -4.20921,13.47887 -7.66085,25.84614 -7.67031,27.48285 -0.009,1.6367 6.54092,13.57315 14.55639,26.52545 13.02634,21.04939 14.57359,24.31868 14.57359,30.79338 v 7.24377 l -21.86523,21.82622 -21.86524,21.82622 2.17837,29.98692 c 2.12446,29.24491 2.10337,30.08984 -0.85301,34.14719 -4.23091,5.80655 -13.17272,9.73893 -38.8902,17.10297 -12.22865,3.5016 -22.71337,6.85427 -23.29936,7.45037 -0.586,0.59611 -4.46126,9.0226 -8.61168,18.72555 -15.31776,35.81022 -19.22002,41.44763 -28.65223,41.39257 -2.55439,-0.0153 -16.67301,-2.41558 -31.37471,-5.33483 -21.30747,-4.23089 -27.22066,-4.93302 -29.14718,-3.46089 -1.32925,1.01574 -7.59429,6.05869 -13.92229,11.20656 -33.69454,27.4107 -37.093,28.91604 -48.22524,21.36151 z m 9.41741,-138.41639 c 5.41652,-5.8497 101.17272,-148.3232 111.21429,-165.47326 10.07309,-17.20389 9.56055,-19.5251 -6.9655,-31.54513 -12.53501,-9.1172 -21.61011,-13.47378 -25.79,-12.38071 -4.49632,1.17581 -9.13528,7.4974 -53.45752,72.84738 -22.35896,32.96669 -41.79289,60.6493 -43.18651,61.5169 -2.0887,1.30033 -7.2988,-2.98622 -29.65538,-24.39864 -14.91684,-14.28686 -28.69207,-26.93876 -30.61163,-28.11531 -5.60528,-3.43563 -10.08322,-1.09876 -24.30952,12.68618 -12.9472,12.54555 -13.37068,13.17694 -13.37068,19.93533 v 6.97944 l 36.78555,37.42216 c 20.23206,20.58219 36.28218,37.92553 35.66695,38.54077 -0.61524,0.61523 -0.0831,0.88851 1.18248,0.60725 1.3946,-0.30991 2.09966,0.39515 1.78975,1.78975 -0.28126,1.2656 -0.0321,1.82187 0.55358,1.23615 0.58572,-0.58571 5.16621,2.34819 10.17888,6.51976 8.28102,6.89154 9.8238,7.58471 16.88124,7.58471 7.00583,0 8.28947,-0.56395 13.09402,-5.75273 z"
     id="path5174"
     inkscape:connector-curvature="0" />
  <path
     style="fill:none;fill-opacity:1;stroke:#ffffff;stroke-width:0;stroke-miterlimit:10;stroke-dasharray:none;stroke-opacity:1"
     d="m 245.78158,505.61383 c -3.1348,-2.12733 -14.20322,-10.72494 -24.59648,-19.10578 l -18.89685,-15.23789 -27.20238,5.29921 c -14.96131,2.91456 -29.40119,5.29921 -32.08862,5.29921 -5.79622,0 -10.38135,-3.86772 -14.76001,-12.45058 -7.16222,-14.03913 -21.29125,-47.82414 -20.52127,-49.06999 0.45577,-0.73745 -0.12286,-0.97569 -1.28584,-0.52942 -2.53882,0.97424 -52.585775,-13.88211 -57.457822,-17.05625 -7.572965,-4.93378 -8.000533,-8.06714 -5.518011,-40.43796 l 2.280887,-29.7416 -21.983605,-22.02289 C -3.5765153,283.18296 -3.3832542,283.995 11.582822,259.42957 16.980147,250.57036 23.792433,239.35043 26.721232,234.4964 L 32.046324,225.67089 23.971565,199.98 c -4.441117,-14.12999 -8.40935,-28.62227 -8.818294,-32.20509 -0.678496,-5.94438 -0.260315,-6.95682 4.78062,-11.57415 5.980696,-5.47809 48.067538,-30.67086 51.31641,-30.71749 1.092076,-0.0157 1.602396,-1.02185 1.135444,-2.2387 -0.98749,-2.57336 6.175993,-47.190058 8.864264,-55.209763 3.338662,-9.959967 6.345507,-10.995096 37.143301,-12.786844 15.16708,-0.882386 29.06356,-2.199846 30.88106,-2.927688 1.81751,-0.727842 10.30157,-10.304374 18.85346,-21.281182 19.71932,-25.3108085 23.22298,-28.3625835 31.46353,-27.4055055 3.41378,0.3964849 17.52636,5.980169 31.36125,12.4081865 L 256.107,27.72908 276.97448,17.928864 C 311.5376,1.6966286 314.90973,0.7840795 322.33972,5.6523857 c 2.02396,1.3261588 11.33385,12.3428923 20.68864,24.4816303 19.53859,25.353235 14.42242,22.858517 51.45953,25.092388 13.49975,0.814229 26.47679,2.217326 28.83787,3.117992 2.64797,1.010106 5.14794,3.68407 6.52445,6.978538 2.83325,6.780898 10.35862,49.490736 9.37974,53.234056 -0.40434,1.54617 -0.1877,2.47287 0.48143,2.05932 0.66913,-0.41354 1.54433,0.50138 1.9449,2.03316 0.42673,1.63185 10.50342,8.44058 24.33589,16.44355 12.98416,7.51217 25.16081,15.3262 27.05921,17.36451 5.20712,5.59086 4.41649,13.2838 -4.20147,40.88049 -4.20921,13.47887 -7.66085,25.84614 -7.67031,27.48285 -0.009,1.6367 6.54092,13.57315 14.55639,26.52545 13.02634,21.04939 14.57359,24.31868 14.57359,30.79338 v 7.24377 l -21.86523,21.82622 -21.86524,21.82622 2.17837,29.98692 c 2.12446,29.24491 2.10337,30.08984 -0.85301,34.14719 -4.23091,5.80655 -13.17272,9.73893 -38.8902,17.10297 -12.22865,3.5016 -22.71337,6.85427 -23.29936,7.45037 -0.586,0.59611 -4.46126,9.0226 -8.61168,18.72555 -15.31776,35.81022 -19.22002,41.44763 -28.65223,41.39257 -2.55439,-0.0153 -16.67301,-2.41558 -31.37471,-5.33483 -21.30747,-4.23089 -27.22066,-4.93302 -29.14718,-3.46089 -1.32925,1.01574 -7.59429,6.05869 -13.92229,11.20656 -33.69454,27.4107 -37.093,28.91604 -48.22524,21.36151 z m 9.41741,-138.41639 c 5.41652,-5.8497 101.17272,-148.3232 111.21429,-165.47326 10.07309,-17.20389 9.56055,-19.5251 -6.9655,-31.54513 -12.53501,-9.1172 -21.61011,-13.47378 -25.79,-12.38071 -4.49632,1.17581 -9.13528,7.4974 -53.45752,72.84738 -22.35896,32.96669 -41.79289,60.6493 -43.18651,61.5169 -2.0887,1.30033 -7.2988,-2.98622 -29.65538,-24.39864 -14.91684,-14.28686 -28.69207,-26.93876 -30.61163,-28.11531 -5.60528,-3.43563 -10.08322,-1.09876 -24.30952,12.68618 -12.9472,12.54555 -13.37068,13.17694 -13.37068,19.93533 v 6.97944 l 36.78555,37.42216 c 20.23206,20.58219 36.28218,37.92553 35.66695,38.54077 -0.61524,0.61523 -0.0831,0.88851 1.18248,0.60725 1.3946,-0.30991 2.09966,0.39515 1.78975,1.78975 -0.28126,1.2656 -0.0321,1.82187 0.55358,1.23615 0.58572,-0.58571 5.16621,2.34819 10.17888,6.51976 8.28102,6.89154 9.8238,7.58471 16.88124,7.58471 7.00583,0 8.28947,-0.56395 13.09402,-5.75273 z"
     id="path5176"
     inkscape:connector-curvature="0" />
  <path
     style="fill:none;fill-opacity:1;stroke:#ffffff;stroke-width:0;stroke-miterlimit:10;stroke-dasharray:none;stroke-opacity:1"
     d="m 245.78158,505.61383 c -3.1348,-2.12733 -14.20322,-10.72494 -24.59648,-19.10578 l -18.89685,-15.23789 -27.20238,5.29921 c -14.96131,2.91456 -29.40119,5.29921 -32.08862,5.29921 -5.79622,0 -10.38135,-3.86772 -14.76001,-12.45058 -7.16222,-14.03913 -21.29125,-47.82414 -20.52127,-49.06999 0.45577,-0.73745 -0.12286,-0.97569 -1.28584,-0.52942 -2.53882,0.97424 -52.585775,-13.88211 -57.457822,-17.05625 -7.572965,-4.93378 -8.000533,-8.06714 -5.518011,-40.43796 l 2.280887,-29.7416 -21.983605,-22.02289 C -3.5765153,283.18296 -3.3832542,283.995 11.582822,259.42957 16.980147,250.57036 23.792433,239.35043 26.721232,234.4964 L 32.046324,225.67089 23.971565,199.98 c -4.441117,-14.12999 -8.40935,-28.62227 -8.818294,-32.20509 -0.678496,-5.94438 -0.260315,-6.95682 4.78062,-11.57415 5.980696,-5.47809 48.067538,-30.67086 51.31641,-30.71749 1.092076,-0.0157 1.602396,-1.02185 1.135444,-2.2387 -0.98749,-2.57336 6.175993,-47.190058 8.864264,-55.209763 3.338662,-9.959967 6.345507,-10.995096 37.143301,-12.786844 15.16708,-0.882386 29.06356,-2.199846 30.88106,-2.927688 1.81751,-0.727842 10.30157,-10.304374 18.85346,-21.281182 19.71932,-25.3108085 23.22298,-28.3625835 31.46353,-27.4055055 3.41378,0.3964849 17.52636,5.980169 31.36125,12.4081865 L 256.107,27.72908 276.97448,17.928864 C 311.5376,1.6966286 314.90973,0.7840795 322.33972,5.6523857 c 2.02396,1.3261588 11.33385,12.3428923 20.68864,24.4816303 19.53859,25.353235 14.42242,22.858517 51.45953,25.092388 13.49975,0.814229 26.47679,2.217326 28.83787,3.117992 2.64797,1.010106 5.14794,3.68407 6.52445,6.978538 2.83325,6.780898 10.35862,49.490736 9.37974,53.234056 -0.40434,1.54617 -0.1877,2.47287 0.48143,2.05932 0.66913,-0.41354 1.54433,0.50138 1.9449,2.03316 0.42673,1.63185 10.50342,8.44058 24.33589,16.44355 12.98416,7.51217 25.16081,15.3262 27.05921,17.36451 5.20712,5.59086 4.41649,13.2838 -4.20147,40.88049 -4.20921,13.47887 -7.66085,25.84614 -7.67031,27.48285 -0.009,1.6367 6.54092,13.57315 14.55639,26.52545 13.02634,21.04939 14.57359,24.31868 14.57359,30.79338 v 7.24377 l -21.86523,21.82622 -21.86524,21.82622 2.17837,29.98692 c 2.12446,29.24491 2.10337,30.08984 -0.85301,34.14719 -4.23091,5.80655 -13.17272,9.73893 -38.8902,17.10297 -12.22865,3.5016 -22.71337,6.85427 -23.29936,7.45037 -0.586,0.59611 -4.46126,9.0226 -8.61168,18.72555 -15.31776,35.81022 -19.22002,41.44763 -28.65223,41.39257 -2.55439,-0.0153 -16.67301,-2.41558 -31.37471,-5.33483 -21.30747,-4.23089 -27.22066,-4.93302 -29.14718,-3.46089 -1.32925,1.01574 -7.59429,6.05869 -13.92229,11.20656 -33.69454,27.4107 -37.093,28.91604 -48.22524,21.36151 z m 9.41741,-138.41639 c 5.41652,-5.8497 101.17272,-148.3232 111.21429,-165.47326 10.07309,-17.20389 9.56055,-19.5251 -6.9655,-31.54513 -12.53501,-9.1172 -21.61011,-13.47378 -25.79,-12.38071 -4.49632,1.17581 -9.13528,7.4974 -53.45752,72.84738 -22.35896,32.96669 -41.79289,60.6493 -43.18651,61.5169 -2.0887,1.30033 -7.2988,-2.98622 -29.65538,-24.39864 -14.91684,-14.28686 -28.69207,-26.93876 -30.61163,-28.11531 -5.60528,-3.43563 -10.08322,-1.09876 -24.30952,12.68618 -12.9472,12.54555 -13.37068,13.17694 -13.37068,19.93533 v 6.97944 l 36.78555,37.42216 c 20.23206,20.58219 36.28218,37.92553 35.66695,38.54077 -0.61524,0.61523 -0.0831,0.88851 1.18248,0.60725 1.3946,-0.30991 2.09966,0.39515 1.78975,1.78975 -0.28126,1.2656 -0.0321,1.82187 0.55358,1.23615 0.58572,-0.58571 5.16621,2.34819 10.17888,6.51976 8.28102,6.89154 9.8238,7.58471 16.88124,7.58471 7.00583,0 8.28947,-0.56395 13.09402,-5.75273 z"
     id="path5178"
     inkscape:connector-curvature="0" />
  <path
     style="fill:none;fill-opacity:0;stroke:#84be69;stroke-width:0;stroke-miterlimit:10;stroke-dasharray:none;stroke-opacity:0"
     d="m 245.78158,505.61383 c -3.1348,-2.12733 -14.20322,-10.72494 -24.59648,-19.10578 l -18.89685,-15.23789 -27.20238,5.29921 c -14.96131,2.91456 -29.40119,5.29921 -32.08862,5.29921 -5.79622,0 -10.38135,-3.86772 -14.76001,-12.45058 -7.16222,-14.03913 -21.29125,-47.82414 -20.52127,-49.06999 0.45577,-0.73745 -0.12286,-0.97569 -1.28584,-0.52942 -2.53882,0.97424 -52.585775,-13.88211 -57.457822,-17.05625 -7.572965,-4.93378 -8.000533,-8.06714 -5.518011,-40.43796 l 2.280887,-29.7416 -21.983605,-22.02289 C -3.5765153,283.18296 -3.3832542,283.995 11.582822,259.42957 16.980147,250.57036 23.792433,239.35043 26.721232,234.4964 L 32.046324,225.67089 23.971565,199.98 c -4.441117,-14.12999 -8.40935,-28.62227 -8.818294,-32.20509 -0.678496,-5.94438 -0.260315,-6.95682 4.78062,-11.57415 5.980696,-5.47809 48.067538,-30.67086 51.31641,-30.71749 1.092076,-0.0157 1.602396,-1.02185 1.135444,-2.2387 -0.98749,-2.57336 6.175993,-47.190058 8.864264,-55.209763 3.338662,-9.959967 6.345507,-10.995096 37.143301,-12.786844 15.16708,-0.882386 29.06356,-2.199846 30.88106,-2.927688 1.81751,-0.727842 10.30157,-10.304374 18.85346,-21.281182 19.71932,-25.3108085 23.22298,-28.3625835 31.46353,-27.4055055 3.41378,0.3964849 17.52636,5.980169 31.36125,12.4081865 L 256.107,27.72908 276.97448,17.928864 C 311.5376,1.6966286 314.90973,0.7840795 322.33972,5.6523857 c 2.02396,1.3261588 11.33385,12.3428923 20.68864,24.4816303 19.53859,25.353235 14.42242,22.858517 51.45953,25.092388 13.49975,0.814229 26.47679,2.217326 28.83787,3.117992 2.64797,1.010106 5.14794,3.68407 6.52445,6.978538 2.83325,6.780898 10.35862,49.490736 9.37974,53.234056 -0.40434,1.54617 -0.1877,2.47287 0.48143,2.05932 0.66913,-0.41354 1.54433,0.50138 1.9449,2.03316 0.42673,1.63185 10.50342,8.44058 24.33589,16.44355 12.98416,7.51217 25.16081,15.3262 27.05921,17.36451 5.20712,5.59086 4.41649,13.2838 -4.20147,40.88049 -4.20921,13.47887 -7.66085,25.84614 -7.67031,27.48285 -0.009,1.6367 6.54092,13.57315 14.55639,26.52545 13.02634,21.04939 14.57359,24.31868 14.57359,30.79338 v 7.24377 l -21.86523,21.82622 -21.86524,21.82622 2.17837,29.98692 c 2.12446,29.24491 2.10337,30.08984 -0.85301,34.14719 -4.23091,5.80655 -13.17272,9.73893 -38.8902,17.10297 -12.22865,3.5016 -22.71337,6.85427 -23.29936,7.45037 -0.586,0.59611 -4.46126,9.0226 -8.61168,18.72555 -15.31776,35.81022 -19.22002,41.44763 -28.65223,41.39257 -2.55439,-0.0153 -16.67301,-2.41558 -31.37471,-5.33483 -21.30747,-4.23089 -27.22066,-4.93302 -29.14718,-3.46089 -1.32925,1.01574 -7.59429,6.05869 -13.92229,11.20656 -33.69454,27.4107 -37.093,28.91604 -48.22524,21.36151 z m 9.41741,-138.41639 c 5.41652,-5.8497 101.17272,-148.3232 111.21429,-165.47326 10.07309,-17.20389 9.56055,-19.5251 -6.9655,-31.54513 -12.53501,-9.1172 -21.61011,-13.47378 -25.79,-12.38071 -4.49632,1.17581 -9.13528,7.4974 -53.45752,72.84738 -22.35896,32.96669 -41.79289,60.6493 -43.18651,61.5169 -2.0887,1.30033 -7.2988,-2.98622 -29.65538,-24.39864 -14.91684,-14.28686 -28.69207,-26.93876 -30.61163,-28.11531 -5.60528,-3.43563 -10.08322,-1.09876 -24.30952,12.68618 -12.9472,12.54555 -13.37068,13.17694 -13.37068,19.93533 v 6.97944 l 36.78555,37.42216 c 20.23206,20.58219 36.28218,37.92553 35.66695,38.54077 -0.61524,0.61523 -0.0831,0.88851 1.18248,0.60725 1.3946,-0.30991 2.09966,0.39515 1.78975,1.78975 -0.28126,1.2656 -0.0321,1.82187 0.55358,1.23615 0.58572,-0.58571 5.16621,2.34819 10.17888,6.51976 8.28102,6.89154 9.8238,7.58471 16.88124,7.58471 7.00583,0 8.28947,-0.56395 13.09402,-5.75273 z"
     id="path5184"
     inkscape:connector-curvature="0" />
  <path
     style="fill:none;fill-opacity:0;stroke:#84be69;stroke-width:0;stroke-miterlimit:10;stroke-dasharray:none;stroke-opacity:0"
     d="m 245.78158,505.61383 c -3.1348,-2.12733 -14.20322,-10.72494 -24.59648,-19.10578 l -18.89685,-15.23789 -27.20238,5.29921 c -14.96131,2.91456 -29.40119,5.29921 -32.08862,5.29921 -5.79622,0 -10.38135,-3.86772 -14.76001,-12.45058 -7.16222,-14.03913 -21.29125,-47.82414 -20.52127,-49.06999 0.45577,-0.73745 -0.12286,-0.97569 -1.28584,-0.52942 -2.53882,0.97424 -52.585775,-13.88211 -57.457822,-17.05625 -7.572965,-4.93378 -8.000533,-8.06714 -5.518011,-40.43796 l 2.280887,-29.7416 -21.983605,-22.02289 C -3.5765153,283.18296 -3.3832542,283.995 11.582822,259.42957 16.980147,250.57036 23.792433,239.35043 26.721232,234.4964 L 32.046324,225.67089 23.971565,199.98 c -4.441117,-14.12999 -8.40935,-28.62227 -8.818294,-32.20509 -0.678496,-5.94438 -0.260315,-6.95682 4.78062,-11.57415 5.980696,-5.47809 48.067538,-30.67086 51.31641,-30.71749 1.092076,-0.0157 1.602396,-1.02185 1.135444,-2.2387 -0.98749,-2.57336 6.175993,-47.190058 8.864264,-55.209763 3.338662,-9.959967 6.345507,-10.995096 37.143301,-12.786844 15.16708,-0.882386 29.06356,-2.199846 30.88106,-2.927688 1.81751,-0.727842 10.30157,-10.304374 18.85346,-21.281182 19.71932,-25.3108085 23.22298,-28.3625835 31.46353,-27.4055055 3.41378,0.3964849 17.52636,5.980169 31.36125,12.4081865 L 256.107,27.72908 276.97448,17.928864 C 311.5376,1.6966286 314.90973,0.7840795 322.33972,5.6523857 c 2.02396,1.3261588 11.33385,12.3428923 20.68864,24.4816303 19.53859,25.353235 14.42242,22.858517 51.45953,25.092388 13.49975,0.814229 26.47679,2.217326 28.83787,3.117992 2.64797,1.010106 5.14794,3.68407 6.52445,6.978538 2.83325,6.780898 10.35862,49.490736 9.37974,53.234056 -0.40434,1.54617 -0.1877,2.47287 0.48143,2.05932 0.66913,-0.41354 1.54433,0.50138 1.9449,2.03316 0.42673,1.63185 10.50342,8.44058 24.33589,16.44355 12.98416,7.51217 25.16081,15.3262 27.05921,17.36451 5.20712,5.59086 4.41649,13.2838 -4.20147,40.88049 -4.20921,13.47887 -7.66085,25.84614 -7.67031,27.48285 -0.009,1.6367 6.54092,13.57315 14.55639,26.52545 13.02634,21.04939 14.57359,24.31868 14.57359,30.79338 v 7.24377 l -21.86523,21.82622 -21.86524,21.82622 2.17837,29.98692 c 2.12446,29.24491 2.10337,30.08984 -0.85301,34.14719 -4.23091,5.80655 -13.17272,9.73893 -38.8902,17.10297 -12.22865,3.5016 -22.71337,6.85427 -23.29936,7.45037 -0.586,0.59611 -4.46126,9.0226 -8.61168,18.72555 -15.31776,35.81022 -19.22002,41.44763 -28.65223,41.39257 -2.55439,-0.0153 -16.67301,-2.41558 -31.37471,-5.33483 -21.30747,-4.23089 -27.22066,-4.93302 -29.14718,-3.46089 -1.32925,1.01574 -7.59429,6.05869 -13.92229,11.20656 -33.69454,27.4107 -37.093,28.91604 -48.22524,21.36151 z m 9.41741,-138.41639 c 5.41652,-5.8497 101.17272,-148.3232 111.21429,-165.47326 10.07309,-17.20389 9.56055,-19.5251 -6.9655,-31.54513 -12.53501,-9.1172 -21.61011,-13.47378 -25.79,-12.38071 -4.49632,1.17581 -9.13528,7.4974 -53.45752,72.84738 -22.35896,32.96669 -41.79289,60.6493 -43.18651,61.5169 -2.0887,1.30033 -7.2988,-2.98622 -29.65538,-24.39864 -14.91684,-14.28686 -28.69207,-26.93876 -30.61163,-28.11531 -5.60528,-3.43563 -10.08322,-1.09876 -24.30952,12.68618 -12.9472,12.54555 -13.37068,13.17694 -13.37068,19.93533 v 6.97944 l 36.78555,37.42216 c 20.23206,20.58219 36.28218,37.92553 35.66695,38.54077 -0.61524,0.61523 -0.0831,0.88851 1.18248,0.60725 1.3946,-0.30991 2.09966,0.39515 1.78975,1.78975 -0.28126,1.2656 -0.0321,1.82187 0.55358,1.23615 0.58572,-0.58571 5.16621,2.34819 10.17888,6.51976 8.28102,6.89154 9.8238,7.58471 16.88124,7.58471 7.00583,0 8.28947,-0.56395 13.09402,-5.75273 z"
     id="path5186"
     inkscape:connector-curvature="0" />
  <path
     style="fill:none;fill-opacity:0;stroke:#84be69;stroke-width:0;stroke-miterlimit:10;stroke-dasharray:none;stroke-opacity:0"
     d="m 245.78158,505.61383 c -3.1348,-2.12733 -14.20322,-10.72494 -24.59648,-19.10578 l -18.89685,-15.23789 -27.20238,5.29921 c -14.96131,2.91456 -29.40119,5.29921 -32.08862,5.29921 -5.79622,0 -10.38135,-3.86772 -14.76001,-12.45058 -7.16222,-14.03913 -21.29125,-47.82414 -20.52127,-49.06999 0.45577,-0.73745 -0.12286,-0.97569 -1.28584,-0.52942 -2.53882,0.97424 -52.585775,-13.88211 -57.457822,-17.05625 -7.572965,-4.93378 -8.000533,-8.06714 -5.518011,-40.43796 l 2.280887,-29.7416 -21.983605,-22.02289 C -3.5765153,283.18296 -3.3832542,283.995 11.582822,259.42957 16.980147,250.57036 23.792433,239.35043 26.721232,234.4964 L 32.046324,225.67089 23.971565,199.98 c -4.441117,-14.12999 -8.40935,-28.62227 -8.818294,-32.20509 -0.678496,-5.94438 -0.260315,-6.95682 4.78062,-11.57415 5.980696,-5.47809 48.067538,-30.67086 51.31641,-30.71749 1.092076,-0.0157 1.602396,-1.02185 1.135444,-2.2387 -0.98749,-2.57336 6.175993,-47.190058 8.864264,-55.209763 3.338662,-9.959967 6.345507,-10.995096 37.143301,-12.786844 15.16708,-0.882386 29.06356,-2.199846 30.88106,-2.927688 1.81751,-0.727842 10.30157,-10.304374 18.85346,-21.281182 19.71932,-25.3108085 23.22298,-28.3625835 31.46353,-27.4055055 3.41378,0.3964849 17.52636,5.980169 31.36125,12.4081865 L 256.107,27.72908 276.97448,17.928864 C 311.5376,1.6966286 314.90973,0.7840795 322.33972,5.6523857 c 2.02396,1.3261588 11.33385,12.3428923 20.68864,24.4816303 19.53859,25.353235 14.42242,22.858517 51.45953,25.092388 13.49975,0.814229 26.47679,2.217326 28.83787,3.117992 2.64797,1.010106 5.14794,3.68407 6.52445,6.978538 2.83325,6.780898 10.35862,49.490736 9.37974,53.234056 -0.40434,1.54617 -0.1877,2.47287 0.48143,2.05932 0.66913,-0.41354 1.54433,0.50138 1.9449,2.03316 0.42673,1.63185 10.50342,8.44058 24.33589,16.44355 12.98416,7.51217 25.16081,15.3262 27.05921,17.36451 5.20712,5.59086 4.41649,13.2838 -4.20147,40.88049 -4.20921,13.47887 -7.66085,25.84614 -7.67031,27.48285 -0.009,1.6367 6.54092,13.57315 14.55639,26.52545 13.02634,21.04939 14.57359,24.31868 14.57359,30.79338 v 7.24377 l -21.86523,21.82622 -21.86524,21.82622 2.17837,29.98692 c 2.12446,29.24491 2.10337,30.08984 -0.85301,34.14719 -4.23091,5.80655 -13.17272,9.73893 -38.8902,17.10297 -12.22865,3.5016 -22.71337,6.85427 -23.29936,7.45037 -0.586,0.59611 -4.46126,9.0226 -8.61168,18.72555 -15.31776,35.81022 -19.22002,41.44763 -28.65223,41.39257 -2.55439,-0.0153 -16.67301,-2.41558 -31.37471,-5.33483 -21.30747,-4.23089 -27.22066,-4.93302 -29.14718,-3.46089 -1.32925,1.01574 -7.59429,6.05869 -13.92229,11.20656 -33.69454,27.4107 -37.093,28.91604 -48.22524,21.36151 z m 9.41741,-138.41639 c 5.41652,-5.8497 101.17272,-148.3232 111.21429,-165.47326 10.07309,-17.20389 9.56055,-19.5251 -6.9655,-31.54513 -12.53501,-9.1172 -21.61011,-13.47378 -25.79,-12.38071 -4.49632,1.17581 -9.13528,7.4974 -53.45752,72.84738 -22.35896,32.96669 -41.79289,60.6493 -43.18651,61.5169 -2.0887,1.30033 -7.2988,-2.98622 -29.65538,-24.39864 -14.91684,-14.28686 -28.69207,-26.93876 -30.61163,-28.11531 -5.60528,-3.43563 -10.08322,-1.09876 -24.30952,12.68618 -12.9472,12.54555 -13.37068,13.17694 -13.37068,19.93533 v 6.97944 l 36.78555,37.42216 c 20.23206,20.58219 36.28218,37.92553 35.66695,38.54077 -0.61524,0.61523 -0.0831,0.88851 1.18248,0.60725 1.3946,-0.30991 2.09966,0.39515 1.78975,1.78975 -0.28126,1.2656 -0.0321,1.82187 0.55358,1.23615 0.58572,-0.58571 5.16621,2.34819 10.17888,6.51976 8.28102,6.89154 9.8238,7.58471 16.88124,7.58471 7.00583,0 8.28947,-0.56395 13.09402,-5.75273 z"
     id="path5188"
     inkscape:connector-curvature="0" />
  <path
     style="fill:none;fill-opacity:0;stroke:#84be69;stroke-width:0;stroke-miterlimit:10;stroke-dasharray:none;stroke-opacity:0"
     d="m 245.78158,505.61383 c -3.1348,-2.12733 -14.20322,-10.72494 -24.59648,-19.10578 l -18.89685,-15.23789 -27.20238,5.29921 c -14.96131,2.91456 -29.40119,5.29921 -32.08862,5.29921 -5.79622,0 -10.38135,-3.86772 -14.76001,-12.45058 -7.16222,-14.03913 -21.29125,-47.82414 -20.52127,-49.06999 0.45577,-0.73745 -0.12286,-0.97569 -1.28584,-0.52942 -2.53882,0.97424 -52.585775,-13.88211 -57.457822,-17.05625 -7.572965,-4.93378 -8.000533,-8.06714 -5.518011,-40.43796 l 2.280887,-29.7416 -21.983605,-22.02289 C -3.5765153,283.18296 -3.3832542,283.995 11.582822,259.42957 16.980147,250.57036 23.792433,239.35043 26.721232,234.4964 L 32.046324,225.67089 23.971565,199.98 c -4.441117,-14.12999 -8.40935,-28.62227 -8.818294,-32.20509 -0.678496,-5.94438 -0.260315,-6.95682 4.78062,-11.57415 5.980696,-5.47809 48.067538,-30.67086 51.31641,-30.71749 1.092076,-0.0157 1.602396,-1.02185 1.135444,-2.2387 -0.98749,-2.57336 6.175993,-47.190058 8.864264,-55.209763 3.338662,-9.959967 6.345507,-10.995096 37.143301,-12.786844 15.16708,-0.882386 29.06356,-2.199846 30.88106,-2.927688 1.81751,-0.727842 10.30157,-10.304374 18.85346,-21.281182 19.71932,-25.3108085 23.22298,-28.3625835 31.46353,-27.4055055 3.41378,0.3964849 17.52636,5.980169 31.36125,12.4081865 L 256.107,27.72908 276.97448,17.928864 C 311.5376,1.6966286 314.90973,0.7840795 322.33972,5.6523857 c 2.02396,1.3261588 11.33385,12.3428923 20.68864,24.4816303 19.53859,25.353235 14.42242,22.858517 51.45953,25.092388 13.49975,0.814229 26.47679,2.217326 28.83787,3.117992 2.64797,1.010106 5.14794,3.68407 6.52445,6.978538 2.83325,6.780898 10.35862,49.490736 9.37974,53.234056 -0.40434,1.54617 -0.1877,2.47287 0.48143,2.05932 0.66913,-0.41354 1.54433,0.50138 1.9449,2.03316 0.42673,1.63185 10.50342,8.44058 24.33589,16.44355 12.98416,7.51217 25.16081,15.3262 27.05921,17.36451 5.20712,5.59086 4.41649,13.2838 -4.20147,40.88049 -4.20921,13.47887 -7.66085,25.84614 -7.67031,27.48285 -0.009,1.6367 6.54092,13.57315 14.55639,26.52545 13.02634,21.04939 14.57359,24.31868 14.57359,30.79338 v 7.24377 l -21.86523,21.82622 -21.86524,21.82622 2.17837,29.98692 c 2.12446,29.24491 2.10337,30.08984 -0.85301,34.14719 -4.23091,5.80655 -13.17272,9.73893 -38.8902,17.10297 -12.22865,3.5016 -22.71337,6.85427 -23.29936,7.45037 -0.586,0.59611 -4.46126,9.0226 -8.61168,18.72555 -15.31776,35.81022 -19.22002,41.44763 -28.65223,41.39257 -2.55439,-0.0153 -16.67301,-2.41558 -31.37471,-5.33483 -21.30747,-4.23089 -27.22066,-4.93302 -29.14718,-3.46089 -1.32925,1.01574 -7.59429,6.05869 -13.92229,11.20656 -33.69454,27.4107 -37.093,28.91604 -48.22524,21.36151 z m 9.41741,-138.41639 c 5.41652,-5.8497 101.17272,-148.3232 111.21429,-165.47326 10.07309,-17.20389 9.56055,-19.5251 -6.9655,-31.54513 -12.53501,-9.1172 -21.61011,-13.47378 -25.79,-12.38071 -4.49632,1.17581 -9.13528,7.4974 -53.45752,72.84738 -22.35896,32.96669 -41.79289,60.6493 -43.18651,61.5169 -2.0887,1.30033 -7.2988,-2.98622 -29.65538,-24.39864 -14.91684,-14.28686 -28.69207,-26.93876 -30.61163,-28.11531 -5.60528,-3.43563 -10.08322,-1.09876 -24.30952,12.68618 -12.9472,12.54555 -13.37068,13.17694 -13.37068,19.93533 v 6.97944 l 36.78555,37.42216 c 20.23206,20.58219 36.28218,37.92553 35.66695,38.54077 -0.61524,0.61523 -0.0831,0.88851 1.18248,0.60725 1.3946,-0.30991 2.09966,0.39515 1.78975,1.78975 -0.28126,1.2656 -0.0321,1.82187 0.55358,1.23615 0.58572,-0.58571 5.16621,2.34819 10.17888,6.51976 8.28102,6.89154 9.8238,7.58471 16.88124,7.58471 7.00583,0 8.28947,-0.56395 13.09402,-5.75273 z"
     id="path5190"
     inkscape:connector-curvature="0" />
  <path
     style="fill:none;fill-opacity:0;stroke:#84be69;stroke-width:0;stroke-miterlimit:10;stroke-dasharray:none;stroke-opacity:0"
     d="m 245.78158,505.61383 c -3.1348,-2.12733 -14.20322,-10.72494 -24.59648,-19.10578 l -18.89685,-15.23789 -27.20238,5.29921 c -14.96131,2.91456 -29.40119,5.29921 -32.08862,5.29921 -5.79622,0 -10.38135,-3.86772 -14.76001,-12.45058 -7.16222,-14.03913 -21.29125,-47.82414 -20.52127,-49.06999 0.45577,-0.73745 -0.12286,-0.97569 -1.28584,-0.52942 -2.53882,0.97424 -52.585775,-13.88211 -57.457822,-17.05625 -7.572965,-4.93378 -8.000533,-8.06714 -5.518011,-40.43796 l 2.280887,-29.7416 -21.983605,-22.02289 C -3.5765153,283.18296 -3.3832542,283.995 11.582822,259.42957 16.980147,250.57036 23.792433,239.35043 26.721232,234.4964 L 32.046324,225.67089 23.971565,199.98 c -4.441117,-14.12999 -8.40935,-28.62227 -8.818294,-32.20509 -0.678496,-5.94438 -0.260315,-6.95682 4.78062,-11.57415 5.980696,-5.47809 48.067538,-30.67086 51.31641,-30.71749 1.092076,-0.0157 1.602396,-1.02185 1.135444,-2.2387 -0.98749,-2.57336 6.175993,-47.190058 8.864264,-55.209763 3.338662,-9.959967 6.345507,-10.995096 37.143301,-12.786844 15.16708,-0.882386 29.06356,-2.199846 30.88106,-2.927688 1.81751,-0.727842 10.30157,-10.304374 18.85346,-21.281182 19.71932,-25.3108085 23.22298,-28.3625835 31.46353,-27.4055055 3.41378,0.3964849 17.52636,5.980169 31.36125,12.4081865 L 256.107,27.72908 276.97448,17.928864 C 311.5376,1.6966286 314.90973,0.7840795 322.33972,5.6523857 c 2.02396,1.3261588 11.33385,12.3428923 20.68864,24.4816303 19.53859,25.353235 14.42242,22.858517 51.45953,25.092388 13.49975,0.814229 26.47679,2.217326 28.83787,3.117992 2.64797,1.010106 5.14794,3.68407 6.52445,6.978538 2.83325,6.780898 10.35862,49.490736 9.37974,53.234056 -0.40434,1.54617 -0.1877,2.47287 0.48143,2.05932 0.66913,-0.41354 1.54433,0.50138 1.9449,2.03316 0.42673,1.63185 10.50342,8.44058 24.33589,16.44355 12.98416,7.51217 25.16081,15.3262 27.05921,17.36451 5.20712,5.59086 4.41649,13.2838 -4.20147,40.88049 -4.20921,13.47887 -7.66085,25.84614 -7.67031,27.48285 -0.009,1.6367 6.54092,13.57315 14.55639,26.52545 13.02634,21.04939 14.57359,24.31868 14.57359,30.79338 v 7.24377 l -21.86523,21.82622 -21.86524,21.82622 2.17837,29.98692 c 2.12446,29.24491 2.10337,30.08984 -0.85301,34.14719 -4.23091,5.80655 -13.17272,9.73893 -38.8902,17.10297 -12.22865,3.5016 -22.71337,6.85427 -23.29936,7.45037 -0.586,0.59611 -4.46126,9.0226 -8.61168,18.72555 -15.31776,35.81022 -19.22002,41.44763 -28.65223,41.39257 -2.55439,-0.0153 -16.67301,-2.41558 -31.37471,-5.33483 -21.30747,-4.23089 -27.22066,-4.93302 -29.14718,-3.46089 -1.32925,1.01574 -7.59429,6.05869 -13.92229,11.20656 -33.69454,27.4107 -37.093,28.91604 -48.22524,21.36151 z m 9.41741,-138.41639 c 5.41652,-5.8497 101.17272,-148.3232 111.21429,-165.47326 10.07309,-17.20389 9.56055,-19.5251 -6.9655,-31.54513 -12.53501,-9.1172 -21.61011,-13.47378 -25.79,-12.38071 -4.49632,1.17581 -9.13528,7.4974 -53.45752,72.84738 -22.35896,32.96669 -41.79289,60.6493 -43.18651,61.5169 -2.0887,1.30033 -7.2988,-2.98622 -29.65538,-24.39864 -14.91684,-14.28686 -28.69207,-26.93876 -30.61163,-28.11531 -5.60528,-3.43563 -10.08322,-1.09876 -24.30952,12.68618 -12.9472,12.54555 -13.37068,13.17694 -13.37068,19.93533 v 6.97944 l 36.78555,37.42216 c 20.23206,20.58219 36.28218,37.92553 35.66695,38.54077 -0.61524,0.61523 -0.0831,0.88851 1.18248,0.60725 1.3946,-0.30991 2.09966,0.39515 1.78975,1.78975 -0.28126,1.2656 -0.0321,1.82187 0.55358,1.23615 0.58572,-0.58571 5.16621,2.34819 10.17888,6.51976 8.28102,6.89154 9.8238,7.58471 16.88124,7.58471 7.00583,0 8.28947,-0.56395 13.09402,-5.75273 z"
     id="path5192"
     inkscape:connector-curvature="0" />
  <path
     style="fill:none;fill-opacity:0;stroke:#84be69;stroke-width:0;stroke-miterlimit:10;stroke-dasharray:none;stroke-opacity:0"
     d="m 245.78158,505.61383 c -3.1348,-2.12733 -14.20322,-10.72494 -24.59648,-19.10578 l -18.89685,-15.23789 -27.20238,5.29921 c -14.96131,2.91456 -29.40119,5.29921 -32.08862,5.29921 -5.79622,0 -10.38135,-3.86772 -14.76001,-12.45058 -7.16222,-14.03913 -21.29125,-47.82414 -20.52127,-49.06999 0.45577,-0.73745 -0.12286,-0.97569 -1.28584,-0.52942 -2.53882,0.97424 -52.585775,-13.88211 -57.457822,-17.05625 -7.572965,-4.93378 -8.000533,-8.06714 -5.518011,-40.43796 l 2.280887,-29.7416 -21.983605,-22.02289 C -3.5765153,283.18296 -3.3832542,283.995 11.582822,259.42957 16.980147,250.57036 23.792433,239.35043 26.721232,234.4964 L 32.046324,225.67089 23.971565,199.98 c -4.441117,-14.12999 -8.40935,-28.62227 -8.818294,-32.20509 -0.678496,-5.94438 -0.260315,-6.95682 4.78062,-11.57415 5.980696,-5.47809 48.067538,-30.67086 51.31641,-30.71749 1.092076,-0.0157 1.602396,-1.02185 1.135444,-2.2387 -0.98749,-2.57336 6.175993,-47.190058 8.864264,-55.209763 3.338662,-9.959967 6.345507,-10.995096 37.143301,-12.786844 15.16708,-0.882386 29.06356,-2.199846 30.88106,-2.927688 1.81751,-0.727842 10.30157,-10.304374 18.85346,-21.281182 19.71932,-25.3108085 23.22298,-28.3625835 31.46353,-27.4055055 3.41378,0.3964849 17.52636,5.980169 31.36125,12.4081865 L 256.107,27.72908 276.97448,17.928864 C 311.5376,1.6966286 314.90973,0.7840795 322.33972,5.6523857 c 2.02396,1.3261588 11.33385,12.3428923 20.68864,24.4816303 19.53859,25.353235 14.42242,22.858517 51.45953,25.092388 13.49975,0.814229 26.47679,2.217326 28.83787,3.117992 2.64797,1.010106 5.14794,3.68407 6.52445,6.978538 2.83325,6.780898 10.35862,49.490736 9.37974,53.234056 -0.40434,1.54617 -0.1877,2.47287 0.48143,2.05932 0.66913,-0.41354 1.54433,0.50138 1.9449,2.03316 0.42673,1.63185 10.50342,8.44058 24.33589,16.44355 12.98416,7.51217 25.16081,15.3262 27.05921,17.36451 5.20712,5.59086 4.41649,13.2838 -4.20147,40.88049 -4.20921,13.47887 -7.66085,25.84614 -7.67031,27.48285 -0.009,1.6367 6.54092,13.57315 14.55639,26.52545 13.02634,21.04939 14.57359,24.31868 14.57359,30.79338 v 7.24377 l -21.86523,21.82622 -21.86524,21.82622 2.17837,29.98692 c 2.12446,29.24491 2.10337,30.08984 -0.85301,34.14719 -4.23091,5.80655 -13.17272,9.73893 -38.8902,17.10297 -12.22865,3.5016 -22.71337,6.85427 -23.29936,7.45037 -0.586,0.59611 -4.46126,9.0226 -8.61168,18.72555 -15.31776,35.81022 -19.22002,41.44763 -28.65223,41.39257 -2.55439,-0.0153 -16.67301,-2.41558 -31.37471,-5.33483 -21.30747,-4.23089 -27.22066,-4.93302 -29.14718,-3.46089 -1.32925,1.01574 -7.59429,6.05869 -13.92229,11.20656 -33.69454,27.4107 -37.093,28.91604 -48.22524,21.36151 z m 9.41741,-138.41639 c 5.41652,-5.8497 101.17272,-148.3232 111.21429,-165.47326 10.07309,-17.20389 9.56055,-19.5251 -6.9655,-31.54513 -12.53501,-9.1172 -21.61011,-13.47378 -25.79,-12.38071 -4.49632,1.17581 -9.13528,7.4974 -53.45752,72.84738 -22.35896,32.96669 -41.79289,60.6493 -43.18651,61.5169 -2.0887,1.30033 -7.2988,-2.98622 -29.65538,-24.39864 -14.91684,-14.28686 -28.69207,-26.93876 -30.61163,-28.11531 -5.60528,-3.43563 -10.08322,-1.09876 -24.30952,12.68618 -12.9472,12.54555 -13.37068,13.17694 -13.37068,19.93533 v 6.97944 l 36.78555,37.42216 c 20.23206,20.58219 36.28218,37.92553 35.66695,38.54077 -0.61524,0.61523 -0.0831,0.88851 1.18248,0.60725 1.3946,-0.30991 2.09966,0.39515 1.78975,1.78975 -0.28126,1.2656 -0.0321,1.82187 0.55358,1.23615 0.58572,-0.58571 5.16621,2.34819 10.17888,6.51976 8.28102,6.89154 9.8238,7.58471 16.88124,7.58471 7.00583,0 8.28947,-0.56395 13.09402,-5.75273 z"
     id="path5194"
     inkscape:connector-curvature="0" />
  <path
     style="fill:none;fill-opacity:0;stroke:#84be69;stroke-width:0;stroke-miterlimit:10;stroke-dasharray:none;stroke-opacity:0"
     d="m 245.78158,505.61383 c -3.1348,-2.12733 -14.20322,-10.72494 -24.59648,-19.10578 l -18.89685,-15.23789 -27.20238,5.29921 c -14.96131,2.91456 -29.40119,5.29921 -32.08862,5.29921 -5.79622,0 -10.38135,-3.86772 -14.76001,-12.45058 -7.16222,-14.03913 -21.29125,-47.82414 -20.52127,-49.06999 0.45577,-0.73745 -0.12286,-0.97569 -1.28584,-0.52942 -2.53882,0.97424 -52.585775,-13.88211 -57.457822,-17.05625 -7.572965,-4.93378 -8.000533,-8.06714 -5.518011,-40.43796 l 2.280887,-29.7416 -21.983605,-22.02289 C -3.5765153,283.18296 -3.3832542,283.995 11.582822,259.42957 16.980147,250.57036 23.792433,239.35043 26.721232,234.4964 L 32.046324,225.67089 23.971565,199.98 c -4.441117,-14.12999 -8.40935,-28.62227 -8.818294,-32.20509 -0.678496,-5.94438 -0.260315,-6.95682 4.78062,-11.57415 5.980696,-5.47809 48.067538,-30.67086 51.31641,-30.71749 1.092076,-0.0157 1.602396,-1.02185 1.135444,-2.2387 -0.98749,-2.57336 6.175993,-47.190058 8.864264,-55.209763 3.338662,-9.959967 6.345507,-10.995096 37.143301,-12.786844 15.16708,-0.882386 29.06356,-2.199846 30.88106,-2.927688 1.81751,-0.727842 10.30157,-10.304374 18.85346,-21.281182 19.71932,-25.3108085 23.22298,-28.3625835 31.46353,-27.4055055 3.41378,0.3964849 17.52636,5.980169 31.36125,12.4081865 L 256.107,27.72908 276.97448,17.928864 C 311.5376,1.6966286 314.90973,0.7840795 322.33972,5.6523857 c 2.02396,1.3261588 11.33385,12.3428923 20.68864,24.4816303 19.53859,25.353235 14.42242,22.858517 51.45953,25.092388 13.49975,0.814229 26.47679,2.217326 28.83787,3.117992 2.64797,1.010106 5.14794,3.68407 6.52445,6.978538 2.83325,6.780898 10.35862,49.490736 9.37974,53.234056 -0.40434,1.54617 -0.1877,2.47287 0.48143,2.05932 0.66913,-0.41354 1.54433,0.50138 1.9449,2.03316 0.42673,1.63185 10.50342,8.44058 24.33589,16.44355 12.98416,7.51217 25.16081,15.3262 27.05921,17.36451 5.20712,5.59086 4.41649,13.2838 -4.20147,40.88049 -4.20921,13.47887 -7.66085,25.84614 -7.67031,27.48285 -0.009,1.6367 6.54092,13.57315 14.55639,26.52545 13.02634,21.04939 14.57359,24.31868 14.57359,30.79338 v 7.24377 l -21.86523,21.82622 -21.86524,21.82622 2.17837,29.98692 c 2.12446,29.24491 2.10337,30.08984 -0.85301,34.14719 -4.23091,5.80655 -13.17272,9.73893 -38.8902,17.10297 -12.22865,3.5016 -22.71337,6.85427 -23.29936,7.45037 -0.586,0.59611 -4.46126,9.0226 -8.61168,18.72555 -15.31776,35.81022 -19.22002,41.44763 -28.65223,41.39257 -2.55439,-0.0153 -16.67301,-2.41558 -31.37471,-5.33483 -21.30747,-4.23089 -27.22066,-4.93302 -29.14718,-3.46089 -1.32925,1.01574 -7.59429,6.05869 -13.92229,11.20656 -33.69454,27.4107 -37.093,28.91604 -48.22524,21.36151 z m 9.41741,-138.41639 c 5.41652,-5.8497 101.17272,-148.3232 111.21429,-165.47326 10.07309,-17.20389 9.56055,-19.5251 -6.9655,-31.54513 -12.53501,-9.1172 -21.61011,-13.47378 -25.79,-12.38071 -4.49632,1.17581 -9.13528,7.4974 -53.45752,72.84738 -22.35896,32.96669 -41.79289,60.6493 -43.18651,61.5169 -2.0887,1.30033 -7.2988,-2.98622 -29.65538,-24.39864 -14.91684,-14.28686 -28.69207,-26.93876 -30.61163,-28.11531 -5.60528,-3.43563 -10.08322,-1.09876 -24.30952,12.68618 -12.9472,12.54555 -13.37068,13.17694 -13.37068,19.93533 v 6.97944 l 36.78555,37.42216 c 20.23206,20.58219 36.28218,37.92553 35.66695,38.54077 -0.61524,0.61523 -0.0831,0.88851 1.18248,0.60725 1.3946,-0.30991 2.09966,0.39515 1.78975,1.78975 -0.28126,1.2656 -0.0321,1.82187 0.55358,1.23615 0.58572,-0.58571 5.16621,2.34819 10.17888,6.51976 8.28102,6.89154 9.8238,7.58471 16.88124,7.58471 7.00583,0 8.28947,-0.56395 13.09402,-5.75273 z"
     id="path5196"
     inkscape:connector-curvature="0" />
  <path
     style="fill:none;fill-opacity:0;stroke:#84be69;stroke-width:0;stroke-miterlimit:10;stroke-dasharray:none;stroke-opacity:0"
     d="m 245.78158,505.61383 c -3.1348,-2.12733 -14.20322,-10.72494 -24.59648,-19.10578 l -18.89685,-15.23789 -27.20238,5.29921 c -14.96131,2.91456 -29.40119,5.29921 -32.08862,5.29921 -5.79622,0 -10.38135,-3.86772 -14.76001,-12.45058 -7.16222,-14.03913 -21.29125,-47.82414 -20.52127,-49.06999 0.45577,-0.73745 -0.12286,-0.97569 -1.28584,-0.52942 -2.53882,0.97424 -52.585775,-13.88211 -57.457822,-17.05625 -7.572965,-4.93378 -8.000533,-8.06714 -5.518011,-40.43796 l 2.280887,-29.7416 -21.983605,-22.02289 C -3.5765153,283.18296 -3.3832542,283.995 11.582822,259.42957 16.980147,250.57036 23.792433,239.35043 26.721232,234.4964 L 32.046324,225.67089 23.971565,199.98 c -4.441117,-14.12999 -8.40935,-28.62227 -8.818294,-32.20509 -0.678496,-5.94438 -0.260315,-6.95682 4.78062,-11.57415 5.980696,-5.47809 48.067538,-30.67086 51.31641,-30.71749 1.092076,-0.0157 1.602396,-1.02185 1.135444,-2.2387 -0.98749,-2.57336 6.175993,-47.190058 8.864264,-55.209763 3.338662,-9.959967 6.345507,-10.995096 37.143301,-12.786844 15.16708,-0.882386 29.06356,-2.199846 30.88106,-2.927688 1.81751,-0.727842 10.30157,-10.304374 18.85346,-21.281182 19.71932,-25.3108085 23.22298,-28.3625835 31.46353,-27.4055055 3.41378,0.3964849 17.52636,5.980169 31.36125,12.4081865 L 256.107,27.72908 276.97448,17.928864 C 311.5376,1.6966286 314.90973,0.7840795 322.33972,5.6523857 c 2.02396,1.3261588 11.33385,12.3428923 20.68864,24.4816303 19.53859,25.353235 14.42242,22.858517 51.45953,25.092388 13.49975,0.814229 26.47679,2.217326 28.83787,3.117992 2.64797,1.010106 5.14794,3.68407 6.52445,6.978538 2.83325,6.780898 10.35862,49.490736 9.37974,53.234056 -0.40434,1.54617 -0.1877,2.47287 0.48143,2.05932 0.66913,-0.41354 1.54433,0.50138 1.9449,2.03316 0.42673,1.63185 10.50342,8.44058 24.33589,16.44355 12.98416,7.51217 25.16081,15.3262 27.05921,17.36451 5.20712,5.59086 4.41649,13.2838 -4.20147,40.88049 -4.20921,13.47887 -7.66085,25.84614 -7.67031,27.48285 -0.009,1.6367 6.54092,13.57315 14.55639,26.52545 13.02634,21.04939 14.57359,24.31868 14.57359,30.79338 v 7.24377 l -21.86523,21.82622 -21.86524,21.82622 2.17837,29.98692 c 2.12446,29.24491 2.10337,30.08984 -0.85301,34.14719 -4.23091,5.80655 -13.17272,9.73893 -38.8902,17.10297 -12.22865,3.5016 -22.71337,6.85427 -23.29936,7.45037 -0.586,0.59611 -4.46126,9.0226 -8.61168,18.72555 -15.31776,35.81022 -19.22002,41.44763 -28.65223,41.39257 -2.55439,-0.0153 -16.67301,-2.41558 -31.37471,-5.33483 -21.30747,-4.23089 -27.22066,-4.93302 -29.14718,-3.46089 -1.32925,1.01574 -7.59429,6.05869 -13.92229,11.20656 -33.69454,27.4107 -37.093,28.91604 -48.22524,21.36151 z m 9.41741,-138.41639 c 5.41652,-5.8497 101.17272,-148.3232 111.21429,-165.47326 10.07309,-17.20389 9.56055,-19.5251 -6.9655,-31.54513 -12.53501,-9.1172 -21.61011,-13.47378 -25.79,-12.38071 -4.49632,1.17581 -9.13528,7.4974 -53.45752,72.84738 -22.35896,32.96669 -41.79289,60.6493 -43.18651,61.5169 -2.0887,1.30033 -7.2988,-2.98622 -29.65538,-24.39864 -14.91684,-14.28686 -28.69207,-26.93876 -30.61163,-28.11531 -5.60528,-3.43563 -10.08322,-1.09876 -24.30952,12.68618 -12.9472,12.54555 -13.37068,13.17694 -13.37068,19.93533 v 6.97944 l 36.78555,37.42216 c 20.23206,20.58219 36.28218,37.92553 35.66695,38.54077 -0.61524,0.61523 -0.0831,0.88851 1.18248,0.60725 1.3946,-0.30991 2.09966,0.39515 1.78975,1.78975 -0.28126,1.2656 -0.0321,1.82187 0.55358,1.23615 0.58572,-0.58571 5.16621,2.34819 10.17888,6.51976 8.28102,6.89154 9.8238,7.58471 16.88124,7.58471 7.00583,0 8.28947,-0.56395 13.09402,-5.75273 z"
     id="path5198"
     inkscape:connector-curvature="0" />
  <path
     style="fill:none;fill-opacity:0;stroke:#84be69;stroke-width:0;stroke-miterlimit:10;stroke-dasharray:none;stroke-opacity:0"
     d="m 245.78158,505.61383 c -3.1348,-2.12733 -14.20322,-10.72494 -24.59648,-19.10578 l -18.89685,-15.23789 -27.20238,5.29921 c -14.96131,2.91456 -29.40119,5.29921 -32.08862,5.29921 -5.79622,0 -10.38135,-3.86772 -14.76001,-12.45058 -7.16222,-14.03913 -21.29125,-47.82414 -20.52127,-49.06999 0.45577,-0.73745 -0.12286,-0.97569 -1.28584,-0.52942 -2.53882,0.97424 -52.585775,-13.88211 -57.457822,-17.05625 -7.572965,-4.93378 -8.000533,-8.06714 -5.518011,-40.43796 l 2.280887,-29.7416 -21.983605,-22.02289 C -3.5765153,283.18296 -3.3832542,283.995 11.582822,259.42957 16.980147,250.57036 23.792433,239.35043 26.721232,234.4964 L 32.046324,225.67089 23.971565,199.98 c -4.441117,-14.12999 -8.40935,-28.62227 -8.818294,-32.20509 -0.678496,-5.94438 -0.260315,-6.95682 4.78062,-11.57415 5.980696,-5.47809 48.067538,-30.67086 51.31641,-30.71749 1.092076,-0.0157 1.602396,-1.02185 1.135444,-2.2387 -0.98749,-2.57336 6.175993,-47.190058 8.864264,-55.209763 3.338662,-9.959967 6.345507,-10.995096 37.143301,-12.786844 15.16708,-0.882386 29.06356,-2.199846 30.88106,-2.927688 1.81751,-0.727842 10.30157,-10.304374 18.85346,-21.281182 19.71932,-25.3108085 23.22298,-28.3625835 31.46353,-27.4055055 3.41378,0.3964849 17.52636,5.980169 31.36125,12.4081865 L 256.107,27.72908 276.97448,17.928864 C 311.5376,1.6966286 314.90973,0.7840795 322.33972,5.6523857 c 2.02396,1.3261588 11.33385,12.3428923 20.68864,24.4816303 19.53859,25.353235 14.42242,22.858517 51.45953,25.092388 13.49975,0.814229 26.47679,2.217326 28.83787,3.117992 2.64797,1.010106 5.14794,3.68407 6.52445,6.978538 2.83325,6.780898 10.35862,49.490736 9.37974,53.234056 -0.40434,1.54617 -0.1877,2.47287 0.48143,2.05932 0.66913,-0.41354 1.54433,0.50138 1.9449,2.03316 0.42673,1.63185 10.50342,8.44058 24.33589,16.44355 12.98416,7.51217 25.16081,15.3262 27.05921,17.36451 5.20712,5.59086 4.41649,13.2838 -4.20147,40.88049 -4.20921,13.47887 -7.66085,25.84614 -7.67031,27.48285 -0.009,1.6367 6.54092,13.57315 14.55639,26.52545 13.02634,21.04939 14.57359,24.31868 14.57359,30.79338 v 7.24377 l -21.86523,21.82622 -21.86524,21.82622 2.17837,29.98692 c 2.12446,29.24491 2.10337,30.08984 -0.85301,34.14719 -4.23091,5.80655 -13.17272,9.73893 -38.8902,17.10297 -12.22865,3.5016 -22.71337,6.85427 -23.29936,7.45037 -0.586,0.59611 -4.46126,9.0226 -8.61168,18.72555 -15.31776,35.81022 -19.22002,41.44763 -28.65223,41.39257 -2.55439,-0.0153 -16.67301,-2.41558 -31.37471,-5.33483 -21.30747,-4.23089 -27.22066,-4.93302 -29.14718,-3.46089 -1.32925,1.01574 -7.59429,6.05869 -13.92229,11.20656 -33.69454,27.4107 -37.093,28.91604 -48.22524,21.36151 z m 9.41741,-138.41639 c 5.41652,-5.8497 101.17272,-148.3232 111.21429,-165.47326 10.07309,-17.20389 9.56055,-19.5251 -6.9655,-31.54513 -12.53501,-9.1172 -21.61011,-13.47378 -25.79,-12.38071 -4.49632,1.17581 -9.13528,7.4974 -53.45752,72.84738 -22.35896,32.96669 -41.79289,60.6493 -43.18651,61.5169 -2.0887,1.30033 -7.2988,-2.98622 -29.65538,-24.39864 -14.91684,-14.28686 -28.69207,-26.93876 -30.61163,-28.11531 -5.60528,-3.43563 -10.08322,-1.09876 -24.30952,12.68618 -12.9472,12.54555 -13.37068,13.17694 -13.37068,19.93533 v 6.97944 l 36.78555,37.42216 c 20.23206,20.58219 36.28218,37.92553 35.66695,38.54077 -0.61524,0.61523 -0.0831,0.88851 1.18248,0.60725 1.3946,-0.30991 2.09966,0.39515 1.78975,1.78975 -0.28126,1.2656 -0.0321,1.82187 0.55358,1.23615 0.58572,-0.58571 5.16621,2.34819 10.17888,6.51976 8.28102,6.89154 9.8238,7.58471 16.88124,7.58471 7.00583,0 8.28947,-0.56395 13.09402,-5.75273 z"
     id="path5200"
     inkscape:connector-curvature="0" />
  <path
     style="fill:none;fill-opacity:0;stroke:#84be69;stroke-width:0;stroke-miterlimit:10;stroke-dasharray:none;stroke-opacity:0"
     d="m 251.23891,506.70755 c -3.04802,-1.45479 -8.04546,-5.34437 -33.77443,-26.28711 -7.65937,-6.23455 -14.15346,-11.38731 -14.43131,-11.45059 -0.27785,-0.0633 -9.1983,1.60846 -19.82324,3.71504 -35.546,7.04752 -40.53665,7.75556 -43.86304,6.22311 -4.87922,-2.24786 -8.74361,-9.04464 -20.13246,-35.40949 -3.43653,-7.95541 -7.30214,-16.58451 -8.59027,-19.17578 l -2.34203,-4.71133 -2.9037,-1.23975 c -1.59703,-0.68186 -9.190638,-3.04074 -16.874683,-5.24197 -19.437473,-5.56819 -34.09536,-10.20052 -37.18312,-11.75095 -1.660143,-0.83361 -4.28062,-3.59658 -6.462567,-6.814 l -1.640653,-2.41926 2.403021,-30.30818 2.403024,-30.30819 -6.123129,-6.00763 C 10.02558,294.24796 6.1307687,290.17671 4.0498071,285.95623 c -0.6557664,-1.32998 -0.8509388,-2.403 -0.8509388,-4.67828 0,-2.79595 0.1027916,-3.15175 1.9389641,-6.71153 1.0664301,-2.06748 7.2597356,-12.29011 13.7629016,-22.71696 12.47964,-20.00923 15.171135,-24.69551 15.171135,-26.4151 0,-1.14488 -2.251932,-8.63062 -7.406,-24.61858 -8.277196,-25.67592 -10.215115,-33.76493 -9.096171,-37.96804 0.956501,-3.59291 5.680051,-7.19585 21.871389,-16.68264 26.708977,-15.64925 32.312765,-19.12388 32.826863,-20.3543 0.746935,-1.78766 3.295971,-14.75248 5.913741,-30.078276 4.828572,-28.268989 5.673449,-31.257196 9.652511,-34.139614 3.665312,-2.65514 8.266685,-3.265167 34.637998,-4.592154 18.84811,-0.948427 25.51134,-1.421616 27.99145,-1.987819 3.16305,-0.722117 4.15816,-1.853822 20.34315,-23.135751 13.16883,-17.31594 15.20312,-19.867167 18.25889,-22.8988007 3.00414,-2.9804177 5.36658,-3.9538251 9.53435,-3.928483 2.17052,0.013198 3.21189,0.3179626 8.05382,2.3570069 7.17582,3.0218938 17.06836,7.5932238 34.70816,16.0385928 7.80454,3.736563 14.37819,6.80274 14.60811,6.813727 0.22991,0.01099 8.16869,-3.661506 17.64171,-8.161094 26.92239,-12.7878507 32.01917,-15.0446648 36.76768,-16.2804221 2.84159,-0.7394994 6.72347,-0.766794 8.41702,-0.059183 2.71891,1.136034 7.6204,6.9316351 24.19746,28.6115071 12.13427,15.869501 15.40923,19.915559 16.43327,20.30258 1.20438,0.455175 9.3416,1.08905 24.98605,1.946372 29.96721,1.64221 36.16122,2.434135 40.10104,5.127047 3.48258,2.380396 5.0746,8.251271 9.94409,36.671096 2.1195,12.369918 4.31421,23.768338 5.09182,26.444778 0.70491,2.42627 -0.93543,1.37756 32.11283,20.53073 16.43556,9.52525 20.28345,12.34037 21.85222,15.98708 2.24545,5.21961 1.3239,9.9212 -7.09086,36.17618 -3.98204,12.4245 -7.60465,24.73384 -8.03058,27.28732 -0.20871,1.25116 -0.0837,1.94873 0.5844,3.25988 1.31308,2.577 7.5696,13.0001 13.7778,22.95322 13.33939,21.38596 16.03309,26.36816 16.3911,30.31634 0.4203,4.6352 -1.78771,7.30491 -25.99441,31.42966 -9.20679,9.17561 -17.22142,17.41731 -17.81035,18.31488 -1.28535,1.9591 -1.28328,1.83958 -0.23133,13.32515 0.4443,4.85147 1.49241,17.59989 2.32909,28.32982 l 1.52125,19.50895 -1.94799,2.81788 c -2.2925,3.31619 -4.69692,5.63715 -6.73404,6.50032 -4.8576,2.05818 -21.17646,7.19529 -37.65133,11.85247 -4.92668,1.3927 -11.11646,3.23454 -13.75505,4.09296 l -4.7974,1.56075 -2.59682,5.43043 c -1.42829,2.9867 -3.84758,8.27799 -5.37627,11.7584 -12.82081,29.18967 -15.11031,33.97782 -18.33812,38.35155 -1.29648,1.75673 -2.45501,2.83261 -3.92342,3.6434 -1.93689,1.06951 -2.35386,1.1489 -5.91884,1.12703 -4.62169,-0.0284 -7.41262,-0.50459 -36.00647,-6.14445 -12.20995,-2.40829 -22.42066,-4.37871 -22.69048,-4.37871 -0.26981,0 -4.86303,3.58871 -10.20715,7.97493 -24.02998,19.72267 -34.32869,27.79345 -37.60731,29.47175 -3.00298,1.53721 -7.38934,1.69576 -10.17183,0.36772 z m -1.81494,-131.56481 c 5.94611,-2.02017 8.91763,-5.92101 42.37608,-55.6289 23.22162,-34.49944 71.03247,-106.79844 78.14034,-118.16291 2.41767,-3.8655 4.75729,-8.51833 5.64547,-11.22719 0.89066,-2.71644 0.65625,-6.86819 -0.51703,-9.15723 -2.07682,-4.05181 -8.48874,-9.47933 -20.93067,-17.71723 -10.23261,-6.7751 -14.85779,-8.76422 -19.41755,-8.35075 -6.89751,0.62544 -8.81715,3.16142 -58.21832,76.91065 -22.88479,34.16387 -35.51112,52.78498 -39.2604,57.90062 l -1.48615,2.02774 -1.41553,-1.13342 c -0.77854,-0.62338 -7.58983,-7.14478 -15.13619,-14.492 -31.94496,-31.10195 -38.52304,-37.41399 -40.07596,-38.45512 -3.30184,-2.21367 -9.80161,-2.3101 -14.12067,-0.20949 -2.43681,1.18517 -8.32314,6.49343 -17.05678,15.38172 -7.12261,7.24872 -10.54326,11.1536 -11.13585,12.71221 -1.31277,3.45287 -1.11003,10.70256 0.39394,14.08679 0.89582,2.01575 13.00648,14.64902 42.59908,44.43733 33.54252,33.76436 48.24559,47.85829 51.96635,49.81343 0.84374,0.44335 2.74214,1.1179 4.21867,1.499 3.40819,0.87965 10.51603,0.75516 13.43117,-0.23525 z"
     id="path5202"
     inkscape:connector-curvature="0" />
  <path
     style="fill:none;fill-opacity:0;stroke:#84be69;stroke-width:0;stroke-miterlimit:10;stroke-dasharray:none;stroke-opacity:0"
     d="m 251.23891,506.70755 c -3.04802,-1.45479 -8.04546,-5.34437 -33.77443,-26.28711 -7.65937,-6.23455 -14.15346,-11.38731 -14.43131,-11.45059 -0.27785,-0.0633 -9.1983,1.60846 -19.82324,3.71504 -35.546,7.04752 -40.53665,7.75556 -43.86304,6.22311 -4.87922,-2.24786 -8.74361,-9.04464 -20.13246,-35.40949 -3.43653,-7.95541 -7.30214,-16.58451 -8.59027,-19.17578 l -2.34203,-4.71133 -2.9037,-1.23975 c -1.59703,-0.68186 -9.190638,-3.04074 -16.874683,-5.24197 -19.437473,-5.56819 -34.09536,-10.20052 -37.18312,-11.75095 -1.660143,-0.83361 -4.28062,-3.59658 -6.462567,-6.814 l -1.640653,-2.41926 2.403021,-30.30818 2.403024,-30.30819 -6.123129,-6.00763 C 10.02558,294.24796 6.1307687,290.17671 4.0498071,285.95623 c -0.6557664,-1.32998 -0.8509388,-2.403 -0.8509388,-4.67828 0,-2.79595 0.1027916,-3.15175 1.9389641,-6.71153 1.0664301,-2.06748 7.2597356,-12.29011 13.7629016,-22.71696 12.47964,-20.00923 15.171135,-24.69551 15.171135,-26.4151 0,-1.14488 -2.251932,-8.63062 -7.406,-24.61858 -8.277196,-25.67592 -10.215115,-33.76493 -9.096171,-37.96804 0.956501,-3.59291 5.680051,-7.19585 21.871389,-16.68264 26.708977,-15.64925 32.312765,-19.12388 32.826863,-20.3543 0.746935,-1.78766 3.295971,-14.75248 5.913741,-30.078276 4.828572,-28.268989 5.673449,-31.257196 9.652511,-34.139614 3.665312,-2.65514 8.266685,-3.265167 34.637998,-4.592154 18.84811,-0.948427 25.51134,-1.421616 27.99145,-1.987819 3.16305,-0.722117 4.15816,-1.853822 20.34315,-23.135751 13.16883,-17.31594 15.20312,-19.867167 18.25889,-22.8988007 3.00414,-2.9804177 5.36658,-3.9538251 9.53435,-3.928483 2.17052,0.013198 3.21189,0.3179626 8.05382,2.3570069 7.17582,3.0218938 17.06836,7.5932238 34.70816,16.0385928 7.80454,3.736563 14.37819,6.80274 14.60811,6.813727 0.22991,0.01099 8.16869,-3.661506 17.64171,-8.161094 26.92239,-12.7878507 32.01917,-15.0446648 36.76768,-16.2804221 2.84159,-0.7394994 6.72347,-0.766794 8.41702,-0.059183 2.71891,1.136034 7.6204,6.9316351 24.19746,28.6115071 12.13427,15.869501 15.40923,19.915559 16.43327,20.30258 1.20438,0.455175 9.3416,1.08905 24.98605,1.946372 29.96721,1.64221 36.16122,2.434135 40.10104,5.127047 3.48258,2.380396 5.0746,8.251271 9.94409,36.671096 2.1195,12.369918 4.31421,23.768338 5.09182,26.444778 0.70491,2.42627 -0.93543,1.37756 32.11283,20.53073 16.43556,9.52525 20.28345,12.34037 21.85222,15.98708 2.24545,5.21961 1.3239,9.9212 -7.09086,36.17618 -3.98204,12.4245 -7.60465,24.73384 -8.03058,27.28732 -0.20871,1.25116 -0.0837,1.94873 0.5844,3.25988 1.31308,2.577 7.5696,13.0001 13.7778,22.95322 13.33939,21.38596 16.03309,26.36816 16.3911,30.31634 0.4203,4.6352 -1.78771,7.30491 -25.99441,31.42966 -9.20679,9.17561 -17.22142,17.41731 -17.81035,18.31488 -1.28535,1.9591 -1.28328,1.83958 -0.23133,13.32515 0.4443,4.85147 1.49241,17.59989 2.32909,28.32982 l 1.52125,19.50895 -1.94799,2.81788 c -2.2925,3.31619 -4.69692,5.63715 -6.73404,6.50032 -4.8576,2.05818 -21.17646,7.19529 -37.65133,11.85247 -4.92668,1.3927 -11.11646,3.23454 -13.75505,4.09296 l -4.7974,1.56075 -2.59682,5.43043 c -1.42829,2.9867 -3.84758,8.27799 -5.37627,11.7584 -12.82081,29.18967 -15.11031,33.97782 -18.33812,38.35155 -1.29648,1.75673 -2.45501,2.83261 -3.92342,3.6434 -1.93689,1.06951 -2.35386,1.1489 -5.91884,1.12703 -4.62169,-0.0284 -7.41262,-0.50459 -36.00647,-6.14445 -12.20995,-2.40829 -22.42066,-4.37871 -22.69048,-4.37871 -0.26981,0 -4.86303,3.58871 -10.20715,7.97493 -24.02998,19.72267 -34.32869,27.79345 -37.60731,29.47175 -3.00298,1.53721 -7.38934,1.69576 -10.17183,0.36772 z m -1.81494,-131.56481 c 5.94611,-2.02017 8.91763,-5.92101 42.37608,-55.6289 23.22162,-34.49944 71.03247,-106.79844 78.14034,-118.16291 2.41767,-3.8655 4.75729,-8.51833 5.64547,-11.22719 0.89066,-2.71644 0.65625,-6.86819 -0.51703,-9.15723 -2.07682,-4.05181 -8.48874,-9.47933 -20.93067,-17.71723 -10.23261,-6.7751 -14.85779,-8.76422 -19.41755,-8.35075 -6.89751,0.62544 -8.81715,3.16142 -58.21832,76.91065 -22.88479,34.16387 -35.51112,52.78498 -39.2604,57.90062 l -1.48615,2.02774 -1.41553,-1.13342 c -0.77854,-0.62338 -7.58983,-7.14478 -15.13619,-14.492 -31.94496,-31.10195 -38.52304,-37.41399 -40.07596,-38.45512 -3.30184,-2.21367 -9.80161,-2.3101 -14.12067,-0.20949 -2.43681,1.18517 -8.32314,6.49343 -17.05678,15.38172 -7.12261,7.24872 -10.54326,11.1536 -11.13585,12.71221 -1.31277,3.45287 -1.11003,10.70256 0.39394,14.08679 0.89582,2.01575 13.00648,14.64902 42.59908,44.43733 33.54252,33.76436 48.24559,47.85829 51.96635,49.81343 0.84374,0.44335 2.74214,1.1179 4.21867,1.499 3.40819,0.87965 10.51603,0.75516 13.43117,-0.23525 z"
     id="path5204"
     inkscape:connector-curvature="0" />
  <path
     style="fill:none;fill-opacity:0;stroke:#84be69;stroke-width:0;stroke-miterlimit:10;stroke-dasharray:none;stroke-opacity:0"
     d="m 251.23891,506.70755 c -3.04802,-1.45479 -8.04546,-5.34437 -33.77443,-26.28711 -7.65937,-6.23455 -14.15346,-11.38731 -14.43131,-11.45059 -0.27785,-0.0633 -9.1983,1.60846 -19.82324,3.71504 -35.546,7.04752 -40.53665,7.75556 -43.86304,6.22311 -4.87922,-2.24786 -8.74361,-9.04464 -20.13246,-35.40949 -3.43653,-7.95541 -7.30214,-16.58451 -8.59027,-19.17578 l -2.34203,-4.71133 -2.9037,-1.23975 c -1.59703,-0.68186 -9.190638,-3.04074 -16.874683,-5.24197 -19.437473,-5.56819 -34.09536,-10.20052 -37.18312,-11.75095 -1.660143,-0.83361 -4.28062,-3.59658 -6.462567,-6.814 l -1.640653,-2.41926 2.403021,-30.30818 2.403024,-30.30819 -6.123129,-6.00763 C 10.02558,294.24796 6.1307687,290.17671 4.0498071,285.95623 c -0.6557664,-1.32998 -0.8509388,-2.403 -0.8509388,-4.67828 0,-2.79595 0.1027916,-3.15175 1.9389641,-6.71153 1.0664301,-2.06748 7.2597356,-12.29011 13.7629016,-22.71696 12.47964,-20.00923 15.171135,-24.69551 15.171135,-26.4151 0,-1.14488 -2.251932,-8.63062 -7.406,-24.61858 -8.277196,-25.67592 -10.215115,-33.76493 -9.096171,-37.96804 0.956501,-3.59291 5.680051,-7.19585 21.871389,-16.68264 26.708977,-15.64925 32.312765,-19.12388 32.826863,-20.3543 0.746935,-1.78766 3.295971,-14.75248 5.913741,-30.078276 4.828572,-28.268989 5.673449,-31.257196 9.652511,-34.139614 3.665312,-2.65514 8.266685,-3.265167 34.637998,-4.592154 18.84811,-0.948427 25.51134,-1.421616 27.99145,-1.987819 3.16305,-0.722117 4.15816,-1.853822 20.34315,-23.135751 13.16883,-17.31594 15.20312,-19.867167 18.25889,-22.8988007 3.00414,-2.9804177 5.36658,-3.9538251 9.53435,-3.928483 2.17052,0.013198 3.21189,0.3179626 8.05382,2.3570069 7.17582,3.0218938 17.06836,7.5932238 34.70816,16.0385928 7.80454,3.736563 14.37819,6.80274 14.60811,6.813727 0.22991,0.01099 8.16869,-3.661506 17.64171,-8.161094 26.92239,-12.7878507 32.01917,-15.0446648 36.76768,-16.2804221 2.84159,-0.7394994 6.72347,-0.766794 8.41702,-0.059183 2.71891,1.136034 7.6204,6.9316351 24.19746,28.6115071 12.13427,15.869501 15.40923,19.915559 16.43327,20.30258 1.20438,0.455175 9.3416,1.08905 24.98605,1.946372 29.96721,1.64221 36.16122,2.434135 40.10104,5.127047 3.48258,2.380396 5.0746,8.251271 9.94409,36.671096 2.1195,12.369918 4.31421,23.768338 5.09182,26.444778 0.70491,2.42627 -0.93543,1.37756 32.11283,20.53073 16.43556,9.52525 20.28345,12.34037 21.85222,15.98708 2.24545,5.21961 1.3239,9.9212 -7.09086,36.17618 -3.98204,12.4245 -7.60465,24.73384 -8.03058,27.28732 -0.20871,1.25116 -0.0837,1.94873 0.5844,3.25988 1.31308,2.577 7.5696,13.0001 13.7778,22.95322 13.33939,21.38596 16.03309,26.36816 16.3911,30.31634 0.4203,4.6352 -1.78771,7.30491 -25.99441,31.42966 -9.20679,9.17561 -17.22142,17.41731 -17.81035,18.31488 -1.28535,1.9591 -1.28328,1.83958 -0.23133,13.32515 0.4443,4.85147 1.49241,17.59989 2.32909,28.32982 l 1.52125,19.50895 -1.94799,2.81788 c -2.2925,3.31619 -4.69692,5.63715 -6.73404,6.50032 -4.8576,2.05818 -21.17646,7.19529 -37.65133,11.85247 -4.92668,1.3927 -11.11646,3.23454 -13.75505,4.09296 l -4.7974,1.56075 -2.59682,5.43043 c -1.42829,2.9867 -3.84758,8.27799 -5.37627,11.7584 -12.82081,29.18967 -15.11031,33.97782 -18.33812,38.35155 -1.29648,1.75673 -2.45501,2.83261 -3.92342,3.6434 -1.93689,1.06951 -2.35386,1.1489 -5.91884,1.12703 -4.62169,-0.0284 -7.41262,-0.50459 -36.00647,-6.14445 -12.20995,-2.40829 -22.42066,-4.37871 -22.69048,-4.37871 -0.26981,0 -4.86303,3.58871 -10.20715,7.97493 -24.02998,19.72267 -34.32869,27.79345 -37.60731,29.47175 -3.00298,1.53721 -7.38934,1.69576 -10.17183,0.36772 z m -1.81494,-131.56481 c 5.94611,-2.02017 8.91763,-5.92101 42.37608,-55.6289 23.22162,-34.49944 71.03247,-106.79844 78.14034,-118.16291 2.41767,-3.8655 4.75729,-8.51833 5.64547,-11.22719 0.89066,-2.71644 0.65625,-6.86819 -0.51703,-9.15723 -2.07682,-4.05181 -8.48874,-9.47933 -20.93067,-17.71723 -10.23261,-6.7751 -14.85779,-8.76422 -19.41755,-8.35075 -6.89751,0.62544 -8.81715,3.16142 -58.21832,76.91065 -22.88479,34.16387 -35.51112,52.78498 -39.2604,57.90062 l -1.48615,2.02774 -1.41553,-1.13342 c -0.77854,-0.62338 -7.58983,-7.14478 -15.13619,-14.492 -31.94496,-31.10195 -38.52304,-37.41399 -40.07596,-38.45512 -3.30184,-2.21367 -9.80161,-2.3101 -14.12067,-0.20949 -2.43681,1.18517 -8.32314,6.49343 -17.05678,15.38172 -7.12261,7.24872 -10.54326,11.1536 -11.13585,12.71221 -1.31277,3.45287 -1.11003,10.70256 0.39394,14.08679 0.89582,2.01575 13.00648,14.64902 42.59908,44.43733 33.54252,33.76436 48.24559,47.85829 51.96635,49.81343 0.84374,0.44335 2.74214,1.1179 4.21867,1.499 3.40819,0.87965 10.51603,0.75516 13.43117,-0.23525 z"
     id="path5206"
     inkscape:connector-curvature="0" />
  <path
     style="fill:none;fill-opacity:0;stroke:#84be69;stroke-width:0;stroke-miterlimit:10;stroke-dasharray:none;stroke-opacity:0"
     d="m 251.23891,506.70755 c -3.04802,-1.45479 -8.04546,-5.34437 -33.77443,-26.28711 -7.65937,-6.23455 -14.15346,-11.38731 -14.43131,-11.45059 -0.27785,-0.0633 -9.1983,1.60846 -19.82324,3.71504 -35.546,7.04752 -40.53665,7.75556 -43.86304,6.22311 -4.87922,-2.24786 -8.74361,-9.04464 -20.13246,-35.40949 -3.43653,-7.95541 -7.30214,-16.58451 -8.59027,-19.17578 l -2.34203,-4.71133 -2.9037,-1.23975 c -1.59703,-0.68186 -9.190638,-3.04074 -16.874683,-5.24197 -19.437473,-5.56819 -34.09536,-10.20052 -37.18312,-11.75095 -1.660143,-0.83361 -4.28062,-3.59658 -6.462567,-6.814 l -1.640653,-2.41926 2.403021,-30.30818 2.403024,-30.30819 -6.123129,-6.00763 C 10.02558,294.24796 6.1307687,290.17671 4.0498071,285.95623 c -0.6557664,-1.32998 -0.8509388,-2.403 -0.8509388,-4.67828 0,-2.79595 0.1027916,-3.15175 1.9389641,-6.71153 1.0664301,-2.06748 7.2597356,-12.29011 13.7629016,-22.71696 12.47964,-20.00923 15.171135,-24.69551 15.171135,-26.4151 0,-1.14488 -2.251932,-8.63062 -7.406,-24.61858 -8.277196,-25.67592 -10.215115,-33.76493 -9.096171,-37.96804 0.956501,-3.59291 5.680051,-7.19585 21.871389,-16.68264 26.708977,-15.64925 32.312765,-19.12388 32.826863,-20.3543 0.746935,-1.78766 3.295971,-14.75248 5.913741,-30.078276 4.828572,-28.268989 5.673449,-31.257196 9.652511,-34.139614 3.665312,-2.65514 8.266685,-3.265167 34.637998,-4.592154 18.84811,-0.948427 25.51134,-1.421616 27.99145,-1.987819 3.16305,-0.722117 4.15816,-1.853822 20.34315,-23.135751 13.16883,-17.31594 15.20312,-19.867167 18.25889,-22.8988007 3.00414,-2.9804177 5.36658,-3.9538251 9.53435,-3.928483 2.17052,0.013198 3.21189,0.3179626 8.05382,2.3570069 7.17582,3.0218938 17.06836,7.5932238 34.70816,16.0385928 7.80454,3.736563 14.37819,6.80274 14.60811,6.813727 0.22991,0.01099 8.16869,-3.661506 17.64171,-8.161094 26.92239,-12.7878507 32.01917,-15.0446648 36.76768,-16.2804221 2.84159,-0.7394994 6.72347,-0.766794 8.41702,-0.059183 2.71891,1.136034 7.6204,6.9316351 24.19746,28.6115071 12.13427,15.869501 15.40923,19.915559 16.43327,20.30258 1.20438,0.455175 9.3416,1.08905 24.98605,1.946372 29.96721,1.64221 36.16122,2.434135 40.10104,5.127047 3.48258,2.380396 5.0746,8.251271 9.94409,36.671096 2.1195,12.369918 4.31421,23.768338 5.09182,26.444778 0.70491,2.42627 -0.93543,1.37756 32.11283,20.53073 16.43556,9.52525 20.28345,12.34037 21.85222,15.98708 2.24545,5.21961 1.3239,9.9212 -7.09086,36.17618 -3.98204,12.4245 -7.60465,24.73384 -8.03058,27.28732 -0.20871,1.25116 -0.0837,1.94873 0.5844,3.25988 1.31308,2.577 7.5696,13.0001 13.7778,22.95322 13.33939,21.38596 16.03309,26.36816 16.3911,30.31634 0.4203,4.6352 -1.78771,7.30491 -25.99441,31.42966 -9.20679,9.17561 -17.22142,17.41731 -17.81035,18.31488 -1.28535,1.9591 -1.28328,1.83958 -0.23133,13.32515 0.4443,4.85147 1.49241,17.59989 2.32909,28.32982 l 1.52125,19.50895 -1.94799,2.81788 c -2.2925,3.31619 -4.69692,5.63715 -6.73404,6.50032 -4.8576,2.05818 -21.17646,7.19529 -37.65133,11.85247 -4.92668,1.3927 -11.11646,3.23454 -13.75505,4.09296 l -4.7974,1.56075 -2.59682,5.43043 c -1.42829,2.9867 -3.84758,8.27799 -5.37627,11.7584 -12.82081,29.18967 -15.11031,33.97782 -18.33812,38.35155 -1.29648,1.75673 -2.45501,2.83261 -3.92342,3.6434 -1.93689,1.06951 -2.35386,1.1489 -5.91884,1.12703 -4.62169,-0.0284 -7.41262,-0.50459 -36.00647,-6.14445 -12.20995,-2.40829 -22.42066,-4.37871 -22.69048,-4.37871 -0.26981,0 -4.86303,3.58871 -10.20715,7.97493 -24.02998,19.72267 -34.32869,27.79345 -37.60731,29.47175 -3.00298,1.53721 -7.38934,1.69576 -10.17183,0.36772 z m -1.81494,-131.56481 c 5.94611,-2.02017 8.91763,-5.92101 42.37608,-55.6289 23.22162,-34.49944 71.03247,-106.79844 78.14034,-118.16291 2.41767,-3.8655 4.75729,-8.51833 5.64547,-11.22719 0.89066,-2.71644 0.65625,-6.86819 -0.51703,-9.15723 -2.07682,-4.05181 -8.48874,-9.47933 -20.93067,-17.71723 -10.23261,-6.7751 -14.85779,-8.76422 -19.41755,-8.35075 -6.89751,0.62544 -8.81715,3.16142 -58.21832,76.91065 -22.88479,34.16387 -35.51112,52.78498 -39.2604,57.90062 l -1.48615,2.02774 -1.41553,-1.13342 c -0.77854,-0.62338 -7.58983,-7.14478 -15.13619,-14.492 -31.94496,-31.10195 -38.52304,-37.41399 -40.07596,-38.45512 -3.30184,-2.21367 -9.80161,-2.3101 -14.12067,-0.20949 -2.43681,1.18517 -8.32314,6.49343 -17.05678,15.38172 -7.12261,7.24872 -10.54326,11.1536 -11.13585,12.71221 -1.31277,3.45287 -1.11003,10.70256 0.39394,14.08679 0.89582,2.01575 13.00648,14.64902 42.59908,44.43733 33.54252,33.76436 48.24559,47.85829 51.96635,49.81343 0.84374,0.44335 2.74214,1.1179 4.21867,1.499 3.40819,0.87965 10.51603,0.75516 13.43117,-0.23525 z"
     id="path5208"
     inkscape:connector-curvature="0" />
</svg>
