<?xml version="1.0" encoding="UTF-8" standalone="no"?>
<!-- Created with Inkscape (http://www.inkscape.org/) -->

<svg
   xmlns:dc="http://purl.org/dc/elements/1.1/"
   xmlns:cc="http://creativecommons.org/ns#"
   xmlns:rdf="http://www.w3.org/1999/02/22-rdf-syntax-ns#"
   xmlns:svg="http://www.w3.org/2000/svg"
   xmlns="http://www.w3.org/2000/svg"
   xmlns:sodipodi="http://sodipodi.sourceforge.net/DTD/sodipodi-0.dtd"
   xmlns:inkscape="http://www.inkscape.org/namespaces/inkscape"
   version="1.1"
   id="svg5309"
   width="512"
   height="512"
   viewBox="0 0 512 512"
   sodipodi:docname="contacts.svg"
   inkscape:version="0.92.4 (5da689c313, 2019-01-14)">
  <metadata
     id="metadata5315">
    <rdf:RDF>
      <cc:Work
         rdf:about="">
        <dc:format>image/svg+xml</dc:format>
        <dc:type
           rdf:resource="http://purl.org/dc/dcmitype/StillImage" />
        <dc:title></dc:title>
      </cc:Work>
    </rdf:RDF>
  </metadata>
  <defs
     id="defs5313" />
  <sodipodi:namedview
     pagecolor="#ffffff"
     bordercolor="#666666"
     borderopacity="1"
     objecttolerance="10"
     gridtolerance="10"
     guidetolerance="10"
     inkscape:pageopacity="0"
     inkscape:pageshadow="2"
     inkscape:window-width="1742"
     inkscape:window-height="997"
     id="namedview5311"
     showgrid="false"
     inkscape:zoom="0.921875"
     inkscape:cx="272.23057"
     inkscape:cy="203.03584"
     inkscape:window-x="1525"
     inkscape:window-y="510"
     inkscape:window-maximized="0"
     inkscape:current-layer="svg5309" />
  <path
     style="fill:#ffffff;fill-opacity:1"
     d="M 257.43945,1.166016 C 246.89173,1.023383 236.69716,2.067569 228,4.314453 181.07992,16.436115 153.29358,46.041169 142.41602,95.5 c -2.51344,11.42827 -2.50674,44.99505 0.0117,58.99219 4.08698,22.71485 12.49714,47.3958 22.32227,65.50781 6.64018,12.24075 10.33184,17.88087 21.26758,32.5 5.34851,7.15 10.53888,14.575 11.53515,16.5 2.21587,4.2815 3.14616,18.71216 1.58008,24.51562 -1.6033,5.94142 -6.48268,13.02584 -11.05664,16.05274 -2.21731,1.46734 -14.93911,7.35203 -28.26953,13.07617 C 111.47995,343.39624 83.673587,360.32641 61.5,382.5 42.80692,401.19308 39.57985,408.75708 39.53125,434 L 39.5,450.5 l 3.191406,6.10547 c 9.969332,19.07208 31.464844,32.10865 68.191404,41.35742 24.27917,6.11416 57.13576,10.52913 92.11719,12.37695 15.1148,0.79841 98.55438,0.53012 112.51562,-0.36132 69.96396,-4.46731 113.79539,-15.0731 138.24024,-33.45313 7.03261,-5.28781 11.36356,-10.24087 16.63672,-19.02539 l 3.60156,-6 0.002,-18.77148 0.004,-18.77344 -3.94141,-7.83789 C 458.28346,382.69762 432.57302,361.23753 391,340.12695 c -8.525,-4.32896 -21.575,-10.33786 -29,-13.35156 -7.425,-3.0137 -18.84655,-7.64825 -25.38086,-10.30078 -6.53431,-2.65253 -13.19066,-5.92714 -14.79297,-7.27539 -6.25858,-5.26625 -8.88375,-15.19311 -7.72461,-29.21875 0.75793,-9.17099 2.71737,-13.29308 12.34961,-25.98047 19.8303,-26.12008 31.37396,-48.43949 39.52539,-76.42188 5.46589,-18.76339 6.06796,-22.95332 6.70117,-46.70507 C 373.35456,105.48547 372.35325,96.670666 366.7832,79 355.24596,42.398789 325.52129,14.174321 289,5.140625 278.88806,2.639392 267.98718,1.308649 257.43945,1.166016 Z"
     id="path5319"
     inkscape:connector-curvature="0" />
</svg>
