<?xml version="1.0" encoding="UTF-8" standalone="no"?>
<!-- Created with Inkscape (http://www.inkscape.org/) -->

<svg
   xmlns:dc="http://purl.org/dc/elements/1.1/"
   xmlns:cc="http://creativecommons.org/ns#"
   xmlns:rdf="http://www.w3.org/1999/02/22-rdf-syntax-ns#"
   xmlns:svg="http://www.w3.org/2000/svg"
   xmlns="http://www.w3.org/2000/svg"
   xmlns:sodipodi="http://sodipodi.sourceforge.net/DTD/sodipodi-0.dtd"
   xmlns:inkscape="http://www.inkscape.org/namespaces/inkscape"
   version="1.1"
   id="svg6573"
   width="512"
   height="512"
   viewBox="0 0 512 512"
   sodipodi:docname="edit-6.svg"
   inkscape:version="0.92.4 (5da689c313, 2019-01-14)">
  <metadata
     id="metadata6579">
    <rdf:RDF>
      <cc:Work
         rdf:about="">
        <dc:format>image/svg+xml</dc:format>
        <dc:type
           rdf:resource="http://purl.org/dc/dcmitype/StillImage" />
        <dc:title></dc:title>
      </cc:Work>
    </rdf:RDF>
  </metadata>
  <defs
     id="defs6577" />
  <sodipodi:namedview
     pagecolor="#ffffff"
     bordercolor="#666666"
     borderopacity="1"
     objecttolerance="10"
     gridtolerance="10"
     guidetolerance="10"
     inkscape:pageopacity="0"
     inkscape:pageshadow="2"
     inkscape:window-width="1493"
     inkscape:window-height="956"
     id="namedview6575"
     showgrid="false"
     inkscape:zoom="0.4609375"
     inkscape:cx="256"
     inkscape:cy="130.16949"
     inkscape:window-x="1040"
     inkscape:window-y="553"
     inkscape:window-maximized="0"
     inkscape:current-layer="svg6573" />
  <path
     style="fill:#ffffff;fill-opacity:1"
     d="m 1,468.99482 v -26.00518 l 92.75,0.25518 92.75,0.25518 0.26688,25.75 0.26688,25.75 H 94.016882 1 Z m 246.5,24.64676 c -6.93083,-3.20339 -9.11162,-7.84073 -12.90609,-27.4441 -6.48203,-33.48809 -8.19089,-52.11123 -5.20052,-56.67512 4.14074,-6.31957 12.42102,-7.6225 22.60661,-3.55725 9.51358,3.79705 48.06118,21.85109 58.48233,27.39062 8.933,4.74847 10.23645,5.80006 12.39975,10.00376 2.17079,4.21827 2.29642,5.10137 1.2314,8.6561 -0.65232,2.17723 -2.71049,5.4269 -4.57371,7.2215 -3.74813,3.61008 -26.70785,18.40958 -44.40573,28.6233 -10.51494,6.06833 -11.94287,6.61323 -18.02677,6.87907 -4.10724,0.17946 -7.7424,-0.23595 -9.60727,-1.09788 z M 341,400.15614 c -24.46835,-10.95373 -28,-12.84986 -28,-15.03314 0,-1.01382 1.82088,-5.78458 4.04639,-10.6017 2.22552,-4.81712 17.70093,-38.06756 34.38982,-73.88985 39.28563,-84.32571 38.62815,-82.84897 37.4946,-84.21482 -1.62013,-1.95213 -20.10567,-9.64177 -21.00836,-8.73908 -0.47042,0.47042 -18.25682,38.19791 -39.52534,83.83888 -21.26852,45.64096 -38.94718,83.29962 -39.2859,83.6859 -0.48904,0.55769 -46.39952,-20.1573 -47.81781,-21.5756 -0.69706,-0.69705 120.8293,-261.60955 121.85593,-261.620074 1.3849,-0.0142 116.12382,54.121094 117.68129,55.523544 0.38579,0.34739 -10.88556,24.78251 -57.87629,125.4698 -18.86633,40.425 -40.644,87.18997 -48.39481,103.92215 -7.75082,16.73218 -14.535,30.56751 -15.07596,30.74518 C 358.9426,407.84499 350.625,404.46496 341,400.15614 Z M 474.67152,95.996613 C 429.01734,75.051357 383.49334,53.734597 382.53131,52.851668 c -1.46488,-1.344442 8.76624,-21.134282 13.68489,-26.470391 5.38781,-5.84508 10.33747,-8.321468 18.07705,-9.044201 8.82806,-0.824377 15.40149,1.151096 37.34155,11.22202 47.14549,21.640727 53.57278,25.897895 57.2953,37.950026 2.59797,8.411229 2.59345,11.57001 -0.0288,20.135543 -2.10648,6.880872 -8.6036,20.386405 -9.7752,20.319665 -0.34437,-0.0196 -11.34895,-4.95509 -24.45461,-10.967717 z"
     id="path7126"
     inkscape:connector-curvature="0" />
</svg>
