<?xml version="1.0" encoding="UTF-8" standalone="no"?>
<!-- Created with Inkscape (http://www.inkscape.org/) -->

<svg
   xmlns:dc="http://purl.org/dc/elements/1.1/"
   xmlns:cc="http://creativecommons.org/ns#"
   xmlns:rdf="http://www.w3.org/1999/02/22-rdf-syntax-ns#"
   xmlns:svg="http://www.w3.org/2000/svg"
   xmlns="http://www.w3.org/2000/svg"
   xmlns:sodipodi="http://sodipodi.sourceforge.net/DTD/sodipodi-0.dtd"
   xmlns:inkscape="http://www.inkscape.org/namespaces/inkscape"
   version="1.1"
   id="svg7204"
   width="512"
   height="512"
   viewBox="0 0 512 512"
   sodipodi:docname="home-5.svg"
   inkscape:version="0.92.4 (5da689c313, 2019-01-14)">
  <metadata
     id="metadata7210">
    <rdf:RDF>
      <cc:Work
         rdf:about="">
        <dc:format>image/svg+xml</dc:format>
        <dc:type
           rdf:resource="http://purl.org/dc/dcmitype/StillImage" />
        <dc:title></dc:title>
      </cc:Work>
    </rdf:RDF>
  </metadata>
  <defs
     id="defs7208" />
  <sodipodi:namedview
     pagecolor="#ffffff"
     bordercolor="#666666"
     borderopacity="1"
     objecttolerance="10"
     gridtolerance="10"
     guidetolerance="10"
     inkscape:pageopacity="0"
     inkscape:pageshadow="2"
     inkscape:window-width="1679"
     inkscape:window-height="1015"
     id="namedview7206"
     showgrid="false"
     inkscape:zoom="0.4609375"
     inkscape:cx="256"
     inkscape:cy="256"
     inkscape:window-x="1747"
     inkscape:window-y="568"
     inkscape:window-maximized="0"
     inkscape:current-layer="svg7204" />
  <path
     style="fill:#ffffff;fill-opacity:1"
     d="M 60.687091,485.19528 58,482.39056 58.003732,354.94528 58.007465,227.5 63.753732,222.87165 C 85.896227,205.03689 146.76314,166.45785 237.72061,112.60691 l 18.2206,-10.78743 6.2794,3.78057 c 55.55958,33.45014 133.74012,82.11082 166.37083,103.55158 l 21.09145,13.85863 0.65593,20.24487 c 0.36076,11.13468 0.65711,69.49525 0.65855,129.69015 l 0.003,109.44528 -2.68709,2.80472 L 445.62619,488 h -91.27773 -91.27772 l -1.24032,-2.25 C 260.40699,483.1685 260.16236,473.43346 259.17264,380 L 258.5,316.5 194.25,316.24265 130,315.9853 v 83.32026 83.32026 l -2.80472,2.68709 L 124.39056,488 H 93.882372 63.374182 Z M 423.94,416.05824 c 1.22105,-0.77259 1.44,-8.29316 1.44,-49.46135 0,-26.70262 -0.34764,-48.89822 -0.77253,-49.32356 -1.16918,-1.17039 -104.81435,-1.48044 -106.60747,-0.31891 -1.29152,0.8366 -1.53867,7.4898 -1.77826,47.86919 -0.17594,29.65215 0.0908,47.86812 0.72525,49.53696 L 317.9505,417 l 52.27475,-0.0153 c 29.70065,-0.009 52.89659,-0.40877 53.71475,-0.92645 z M 16.5,215.10787 C 7.9663747,212.90822 4.6112878,209.54762 2.4236357,201.00838 -2.3846662,182.23974 5.5771517,173.38884 51.5,146.45173 c 8.25,-4.83923 31.65,-19.45071 52,-32.46995 72.2913,-46.24954 121.22146,-76.239877 138.11214,-84.651872 7.09753,-3.534755 10.55926,-4.654243 15.65753,-5.063482 l 6.54538,-0.525401 24.26148,15.224591 c 25.61551,16.074277 32.42709,19.864093 33.598,18.693186 0.39513,-0.395127 0.90217,-6.2175 1.12676,-12.938607 0.38379,-11.485548 0.56358,-12.385518 2.99062,-14.970195 L 328.37418,27 h 56.9117 56.9117 l 2.90121,3.105755 L 448,33.211511 v 54.179613 54.179616 l 6.75,3.32018 c 19.99853,9.83686 37.34234,21.21159 46.95303,30.79359 5.00524,4.9903 6.52086,7.27784 7.84905,11.84664 2.4788,8.52678 1.3586,13.91475 -3.95419,19.01887 -5.19475,4.99073 -12.78878,8.70139 -18.09789,8.84317 -3.18944,0.0852 -6.53299,-1.29419 -16.5,-6.80696 C 446.99821,195.3108 406.96975,170.77591 314.71873,112.79575 L 255.93746,75.851482 206.21873,106.79572 C 116.10592,162.88066 46.251721,205.31055 33.096432,211.95132 26.554816,215.25352 21.094225,216.29209 16.5,215.10787 Z"
     id="path7757"
     inkscape:connector-curvature="0" />
</svg>
