<?xml version="1.0" encoding="UTF-8" standalone="no"?>
<!-- Created with Inkscape (http://www.inkscape.org/) -->

<svg
   xmlns:dc="http://purl.org/dc/elements/1.1/"
   xmlns:cc="http://creativecommons.org/ns#"
   xmlns:rdf="http://www.w3.org/1999/02/22-rdf-syntax-ns#"
   xmlns:svg="http://www.w3.org/2000/svg"
   xmlns="http://www.w3.org/2000/svg"
   xmlns:sodipodi="http://sodipodi.sourceforge.net/DTD/sodipodi-0.dtd"
   xmlns:inkscape="http://www.inkscape.org/namespaces/inkscape"
   version="1.1"
   id="svg7835"
   width="512"
   height="512"
   viewBox="0 0 512 512"
   sodipodi:docname="new.svg"
   inkscape:version="0.92.4 (5da689c313, 2019-01-14)">
  <metadata
     id="metadata7841">
    <rdf:RDF>
      <cc:Work
         rdf:about="">
        <dc:format>image/svg+xml</dc:format>
        <dc:type
           rdf:resource="http://purl.org/dc/dcmitype/StillImage" />
        <dc:title></dc:title>
      </cc:Work>
    </rdf:RDF>
  </metadata>
  <defs
     id="defs7839" />
  <sodipodi:namedview
     pagecolor="#ffffff"
     bordercolor="#666666"
     borderopacity="1"
     objecttolerance="10"
     gridtolerance="10"
     guidetolerance="10"
     inkscape:pageopacity="0"
     inkscape:pageshadow="2"
     inkscape:window-width="1169"
     inkscape:window-height="745"
     id="namedview7837"
     showgrid="false"
     inkscape:zoom="0.4609375"
     inkscape:cx="163.47556"
     inkscape:cy="256"
     inkscape:window-x="1971"
     inkscape:window-y="374"
     inkscape:window-maximized="0"
     inkscape:current-layer="svg7835" />
  <path
     style="fill:#84be69;fill-opacity:1"
     d="m 249.33954,506.84192 c -2.28825,-1.17168 -13.08825,-9.3084 -24,-18.08159 -10.91175,-8.7732 -20.96488,-16.53686 -22.34029,-17.25258 -2.1502,-1.11891 -4.30153,-0.90903 -15.34745,1.49724 -23.79714,5.18403 -43.16753,8.30844 -47.02423,7.58492 -6.89587,-1.29367 -9.31604,-5.09524 -21.58959,-33.91263 C 112.02672,430.21536 107.08193,419.8618 106.09582,419.5786 50.379035,403.57716 50.925263,403.76656 46.560318,398.93508 44.602143,396.76762 42.95344,394.20803 42.896533,393.24712 42.603699,388.30237 43.354945,374.24005 44.966505,354.5 l 1.79606,-22 -21.200925,-21 C 3.7375266,289.88272 0.31177079,285.40997 1.4855655,280.06572 2.2881462,276.41159 9.492486,263.85651 23.080099,242.43267 L 33.90469,225.36535 24.952345,198.24203 c -9.436347,-28.58972 -10.54612,-34.52158 -7.320186,-39.12725 2.08368,-2.97487 13.181489,-10.11806 35.867841,-23.08659 9.9,-5.65929 18.084569,-10.35286 18.187931,-10.43017 0.103361,-0.0773 2.244521,-12.59881 4.758132,-27.82557 4.878562,-29.552992 5.482724,-31.978853 8.870549,-35.617464 4.436343,-4.764745 6.190567,-5.075625 37.239188,-6.599443 16.32321,-0.801117 29.79427,-1.591344 29.93569,-1.75606 0.14142,-0.164716 7.04823,-9.393572 15.34846,-20.50857 18.10729,-24.247815 21.25709,-27.837805 25.7154,-29.309179 5.00962,-1.653323 10.97182,0.388468 38.25988,13.102312 C 244.70129,23.087821 255.62071,28 256.08061,28 c 0.4599,0 9.06741,-3.873714 19.12779,-8.608254 C 304.37364,5.666222 308.58971,4 314.15436,4 c 2.73742,0 5.81107,0.446313 6.83033,0.991808 1.85561,0.993089 16.90137,19.586336 31.29202,38.670041 l 7.66286,10.161848 7.28021,0.568717 c 4.00412,0.312793 17.35067,1.03385 29.65901,1.602347 16.8429,0.77794 23.22116,1.433366 25.7841,2.64956 6.36915,3.022358 7.73045,7.042968 12.81724,37.855679 2.54235,15.4 5.16187,28.50643 5.82116,29.12539 0.65929,0.61897 8.84871,5.51058 18.19871,10.87024 22.27676,12.76963 32.97859,19.77896 35.06863,22.96877 2.9982,4.57583 1.4462,12.67795 -7.77227,40.57463 l -8.43939,25.53902 12.35451,19.46098 c 13.16285,20.73429 20.29087,33.85082 20.28478,37.32677 -0.007,4.19992 -4.41926,9.41956 -24.781,29.31796 l -20.65375,20.18377 2.2651,30.02722 c 2.52853,33.51934 2.59453,32.89427 -4.09324,38.7662 -3.16312,2.77727 -17.63374,7.56533 -53.73429,17.7797 l -5.50091,1.55645 -11.4202,26.58413 c -6.28111,14.62127 -12.23096,27.61484 -13.22189,28.8746 -2.49596,3.1731 -7.92616,5.55514 -12.50721,5.48648 -2.11688,-0.0317 -15.54887,-2.44015 -29.84887,-5.35205 -22.47396,-4.57635 -26.33904,-5.12221 -28.5,-4.02504 -1.375,0.69812 -7.225,5.12125 -13,9.82918 -17.366,14.15719 -30.18167,23.91382 -33.90523,25.8122 -4.57783,2.33391 -7.65692,2.24588 -12.75523,-0.36468 z M 102.25291,292.5 c -0.1359,-13.2 -0.51789,-31.425 -0.84885,-40.5 l -0.60176,-16.5 12.9741,21.5 c 7.13575,11.825 18.3398,30.05 24.89789,40.5 l 11.92379,19 H 163.54904 176.5 V 256 195.5 H 164 151.5 l 0.27695,25.5 c 0.15232,14.025 0.68263,31.79469 1.17846,39.4882 0.49583,7.69352 0.76011,14.12961 0.58728,14.30245 -0.17283,0.17283 -5.37805,-7.92186 -11.56716,-17.98821 -6.1891,-10.06634 -17.26872,-27.80431 -24.62138,-39.41771 l -13.36846,-21.11527 -12.742846,-0.5112 C 84.23428,195.47709 78.1625,195.44302 77.75,195.68254 c -0.945395,0.54895 -0.998851,119.73528 -0.05413,120.68 0.382731,0.38273 6.120231,0.57023 12.75,0.41667 L 102.5,316.5 Z M 274,306 V 295 H 246.5 219 V 276 257 H 242.5 266 V 246.5 236 H 242.5 219 v -10 -10 h 24 24 V 205.5 195 h -34.8 c -25.73333,0 -35.11264,0.31264 -36,1.2 -1.73281,1.73281 -1.73281,117.86719 0,119.6 0.89156,0.89156 11.04444,1.2 39.5,1.2 H 274 Z m 73.13885,-5.5 c 3.10137,-8.8 8.72637,-25.78545 12.5,-37.74545 3.77363,-11.96 7.08615,-21.74703 7.36115,-21.74896 0.275,-0.002 3.55019,10.68352 7.2782,23.74545 3.72801,13.06193 8.82177,30.18259 11.31947,38.04591 l 4.54128,14.29695 15.18052,-0.68132 c 8.34929,-0.37473 15.23685,-0.73335 15.30569,-0.79695 0.58586,-0.54124 33.4212,-118.9026 33.08011,-119.24369 -0.24658,-0.24659 -6.55962,-0.72458 -14.02896,-1.0622 l -13.58062,-0.61386 -1.04864,2.40206 c -0.86271,1.97617 -12.6514,50.80001 -18.32682,75.90206 -0.80829,3.575 -1.71925,5.825 -2.02437,5 -0.30512,-0.825 -2.87785,-10.05 -5.71718,-20.5 -6.03312,-22.20458 -16.77634,-58.22571 -18.11854,-60.75 -0.80243,-1.50912 -2.49177,-1.75 -12.27288,-1.75 -7.86759,0 -11.65235,0.38294 -12.3542,1.25 -1.10728,1.36792 -15.8874,48.34177 -21.86788,69.5 -2.05985,7.2875 -3.99718,13.24892 -4.30518,13.2476 -0.308,-10e-4 -1.8327,-5.73881 -3.38821,-12.75 -9.12287,-41.11953 -16.07072,-69.84091 -17.05001,-70.48229 -0.61698,-0.40408 -7.53428,-0.74158 -15.37178,-0.75 -12.91683,-0.0139 -14.24845,0.14841 -14.23346,1.73469 0.009,0.9625 7.35555,28.075 16.32546,60.25 l 16.30893,58.5 8.92454,0.58217 c 4.90849,0.32019 11.39953,0.54519 14.42453,0.5 l 5.5,-0.0822 5.63885,-16 z"
     id="path7845"
     inkscape:connector-curvature="0" />
</svg>
