<?xml version="1.0" encoding="UTF-8" standalone="no"?>
<!-- Created with Inkscape (http://www.inkscape.org/) -->

<svg
   xmlns:dc="http://purl.org/dc/elements/1.1/"
   xmlns:cc="http://creativecommons.org/ns#"
   xmlns:rdf="http://www.w3.org/1999/02/22-rdf-syntax-ns#"
   xmlns:svg="http://www.w3.org/2000/svg"
   xmlns="http://www.w3.org/2000/svg"
   xmlns:sodipodi="http://sodipodi.sourceforge.net/DTD/sodipodi-0.dtd"
   xmlns:inkscape="http://www.inkscape.org/namespaces/inkscape"
   version="1.1"
   id="svg8466"
   width="512"
   height="512"
   viewBox="0 0 512 512"
   sodipodi:docname="online.svg"
   inkscape:version="0.92.4 (5da689c313, 2019-01-14)">
  <metadata
     id="metadata8472">
    <rdf:RDF>
      <cc:Work
         rdf:about="">
        <dc:format>image/svg+xml</dc:format>
        <dc:type
           rdf:resource="http://purl.org/dc/dcmitype/StillImage" />
        <dc:title></dc:title>
      </cc:Work>
    </rdf:RDF>
  </metadata>
  <defs
     id="defs8470" />
  <sodipodi:namedview
     pagecolor="#ffffff"
     bordercolor="#666666"
     borderopacity="1"
     objecttolerance="10"
     gridtolerance="10"
     guidetolerance="10"
     inkscape:pageopacity="0"
     inkscape:pageshadow="2"
     inkscape:window-width="3840"
     inkscape:window-height="1999"
     id="namedview8468"
     showgrid="false"
     inkscape:zoom="0.4609375"
     inkscape:cx="-347.11864"
     inkscape:cy="256"
     inkscape:window-x="0"
     inkscape:window-y="0"
     inkscape:window-maximized="1"
     inkscape:current-layer="svg8466" />
  <path
     style="fill:#ffffff;fill-opacity:1"
     d="M 87.882283,443.61942 C 81.598582,441.37394 77.389552,438.18125 68.893214,429.21558 42.109901,400.95279 19.059179,358.30798 8.5077973,317.5 2.7286231,295.14876 0.0765865,263.29243 1.8710458,237.77917 5.6912149,183.46478 26.256481,134.07252 63.745528,89.173249 78.735969,71.219743 87.60991,66.011925 100.67384,67.50126 c 11.49286,1.310226 20.31803,7.676266 25.53985,18.423171 1.68091,3.459421 2.23093,6.409582 2.25477,12.093972 0.0274,6.522897 -0.39895,8.376627 -3.21967,13.999997 -1.78817,3.56488 -7.733,11.81641 -13.21073,18.33674 -27.136965,32.30199 -40.688885,62.9037 -46.120404,104.14486 -1.492895,11.33545 -0.641866,42.75381 1.476242,54.5 3.309525,18.35331 10.813167,39.94268 19.781882,56.91614 6.755084,12.78413 14.02884,23.42926 25.22781,36.92086 14.76755,17.79074 18.21394,26.03113 15.60713,37.31701 -3.48579,15.09136 -15.7214,24.92013 -30.875555,24.8021 -3.099341,-0.0241 -7.263138,-0.62565 -9.252882,-1.33669 z m 315.474267,-0.70167 c -14.76742,-5.67915 -23.11921,-21.84013 -18.8788,-36.53105 2.21554,-7.67573 3.92405,-10.33904 15.20974,-23.70957 23.21592,-27.50466 36.84119,-54.90905 44.07906,-88.65577 2.50308,-11.67064 2.68716,-14.2199 2.70949,-37.52136 0.0215,-22.42454 -0.21942,-26.18471 -2.33855,-36.5 -6.85891,-33.38709 -20.58805,-61.60686 -43.53106,-89.47654 -12.28947,-14.92844 -14.27147,-18.05444 -16.18636,-25.52899 -3.46425,-13.522307 4.38695,-29.382713 17.49054,-35.333069 6.48721,-2.945851 18.69583,-2.86025 25.50516,0.17883 8.44121,3.767406 27.20742,24.552077 41.67707,46.159769 7.96562,11.89516 21.24418,38.17013 26.27918,52 17.20238,47.25053 20.02504,99.34869 8.09755,149.45769 -8.19659,34.435 -25.89029,69.80637 -49.7937,99.54231 -12.1845,15.15756 -20.89087,23.20321 -27.96338,25.84126 -7.2397,2.7004 -15.45989,2.72853 -22.35594,0.0765 z M 167.88228,372.67944 c -6.43256,-2.40539 -10.51435,-5.54194 -19.6556,-15.10385 -18.40875,-19.25589 -29.22557,-39.23075 -36.33109,-67.09068 -3.19431,-12.52454 -3.31322,-13.694 -3.35366,-32.98491 -0.0536,-25.56344 2.4275,-38.79493 11.15711,-59.5 10.55019,-25.02317 32.96962,-52.71178 46.9558,-57.9917 15.6289,-5.90007 34.82268,2.87042 39.92947,18.24555 0.95973,2.88946 1.67364,8.06903 1.64924,11.96565 -0.0549,8.77481 -2.80239,14.5626 -11.76328,24.7805 -13.84874,15.7914 -20.72699,29.11511 -24.01796,46.52462 -3.73144,19.73969 1.04148,43.96132 12.00517,60.92379 1.7958,2.77837 6.7006,8.87659 10.89956,13.55159 10.02209,11.15831 12.93708,16.98508 12.93708,25.85993 0,12.94579 -5.60934,22.72817 -16.4004,28.6014 -6.32179,3.44075 -17.88521,4.50894 -24.01144,2.21811 z M 326,373.11363 c -9.33132,-3.03073 -17.65174,-10.70847 -20.4249,-18.84724 -0.8663,-2.54247 -1.5707,-7.80501 -1.56533,-11.69453 0.0127,-9.22232 2.49088,-14.54499 11.80727,-25.36026 9.27223,-10.764 12.40225,-15.39248 17.27109,-25.53942 10.53821,-21.96221 10.28873,-50.49083 -0.64114,-73.31731 -3.61756,-7.55508 -7.73406,-13.25631 -18.64839,-25.82746 -8.32922,-9.59362 -10.2241,-14.61614 -9.59757,-25.43909 0.71615,-12.37103 5.86227,-19.95309 17.79897,-26.22419 3.71138,-1.94982 5.90199,-2.3469 12.5,-2.26581 11.71819,0.14402 15.79701,2.29025 28.06261,14.76619 15.93696,16.21027 27.35809,34.97199 34.39191,56.4963 5.68801,17.40601 6.5485,23.63387 6.51309,47.13919 -0.0288,19.12785 -0.29136,22.54816 -2.37959,31 -7.29164,29.5119 -19.47713,51.75645 -39.44702,72.01031 -10.55639,10.70651 -15.53636,13.36347 -25.641,13.68021 -4.125,0.1293 -8.625,-0.1303 -10,-0.57689 z m -79.97576,-80.65239 c -7.35264,-2.06222 -12.77004,-5.37693 -17.92135,-10.96545 -17.43408,-18.91374 -10.97146,-49.42113 12.77207,-60.2917 7.77651,-3.56035 20.89852,-3.71549 29.3717,-0.34728 8.00962,3.18395 15.90338,10.67125 19.97923,18.95047 3.03855,6.17218 3.27411,7.37164 3.27411,16.67169 0,9.14031 -0.26247,10.5397 -2.98645,15.92255 -8.36303,16.52612 -27.04877,24.95132 -44.48931,20.05972 z"
     id="path8476"
     inkscape:connector-curvature="0" />
</svg>
