<?xml version="1.0" encoding="UTF-8" standalone="no"?>
<!-- Created with Inkscape (http://www.inkscape.org/) -->

<svg
   xmlns:dc="http://purl.org/dc/elements/1.1/"
   xmlns:cc="http://creativecommons.org/ns#"
   xmlns:rdf="http://www.w3.org/1999/02/22-rdf-syntax-ns#"
   xmlns:svg="http://www.w3.org/2000/svg"
   xmlns="http://www.w3.org/2000/svg"
   xmlns:sodipodi="http://sodipodi.sourceforge.net/DTD/sodipodi-0.dtd"
   xmlns:inkscape="http://www.inkscape.org/namespaces/inkscape"
   version="1.1"
   id="svg948"
   width="512"
   height="512"
   viewBox="0 0 512 512"
   sodipodi:docname="phone-46.svg"
   inkscape:version="0.92.4 (5da689c313, 2019-01-14)">
  <metadata
     id="metadata954">
    <rdf:RDF>
      <cc:Work
         rdf:about="">
        <dc:format>image/svg+xml</dc:format>
        <dc:type
           rdf:resource="http://purl.org/dc/dcmitype/StillImage" />
        <dc:title></dc:title>
      </cc:Work>
    </rdf:RDF>
  </metadata>
  <defs
     id="defs952" />
  <sodipodi:namedview
     pagecolor="#ffffff"
     bordercolor="#666666"
     borderopacity="1"
     objecttolerance="10"
     gridtolerance="10"
     guidetolerance="10"
     inkscape:pageopacity="0"
     inkscape:pageshadow="2"
     inkscape:window-width="3840"
     inkscape:window-height="1999"
     id="namedview950"
     showgrid="false"
     inkscape:zoom="3.3632812"
     inkscape:cx="256"
     inkscape:cy="256"
     inkscape:window-x="0"
     inkscape:window-y="0"
     inkscape:window-maximized="1"
     inkscape:current-layer="svg948" />
  <path
     style="fill:#84be69;fill-opacity:1"
     d="m 82,391.45581 v -31.84152 l 24.87114,-63.70697 24.87113,-63.70697 18.0974,-21.20151 18.09739,-21.20151 0.0315,-13.75 c 0.0362,-15.8093 0.63087,-15.09901 -10.26534,-12.26091 -16.40949,4.27413 -26.75442,13.87833 -32.05625,29.76091 -0.54799,1.64162 -4.43221,1.75 -62.719636,1.75 H 0.79183821 l 0.65250019,-8.25 C 3.7465018,157.93952 8.9082982,144.303 22.79885,130.63262 36.260035,117.38479 62.138627,104.5637 89.324953,97.67342 116.70341,90.73445 143.47247,89.39991 255.5,89.38897 c 104.5388,-0.0102 134.23645,1.48586 165.73589,8.34924 14.20881,3.09594 19.54574,4.96189 33.80103,11.81784 29.40394,14.14157 45.35504,30.98691 51.8353,54.74128 C 508.91158,171.77292 511,185.79955 511,192.0211 v 3.27623 h -61.93734 -61.93734 l -3.14979,-6.39814 C 377.64933,176.04885 367.09898,167.38143 353.45845,163.82852 343.35611,161.1972 344,160.38051 344,175.82545 v 13.52812 l 18.56787,25.11577 c 11.57516,15.6571 19.27604,27.03875 20.44827,30.22188 1.03422,2.80836 10.67868,29.9435 21.43213,60.3003 L 424,360.18571 v 31.55581 31.55581 H 253 82 Z m 193,-43.13409 c 31.27996,-10.63174 51.4155,-36.7715 51.24393,-66.52439 -0.10768,-18.67457 -6.37115,-32.71802 -21.20083,-47.5348 C 294.56767,223.79621 287.21099,219.2643 274,215.13919 c -9.86648,-3.08079 -31.77292,-3.36845 -42,-0.5515 -24.87471,6.85148 -44.95472,26.97383 -51.60084,51.70964 -2.32864,8.66683 -2.32929,24.35576 -0.001,32.92004 6.69036,24.61339 28.11935,44.67917 54.1022,50.66047 9.35199,2.15284 32.16685,1.27624 40.5,-1.55612 z m 40.10029,-169.30664 c 0.4092,-1.53024 1.05777,-7.20812 1.44128,-12.6175 l 0.69728,-9.83524 -7.86942,-1.12534 C 289.80418,152.63915 279.40597,152.03516 249,151.9304 c -29.34121,-0.1011 -33.80438,0.10605 -45.92044,2.13125 -7.38124,1.23377 -13.61405,2.43683 -13.85068,2.67347 -0.59609,0.59608 2.65724,20.54608 3.80288,23.32002 l 0.93248,2.25782 60.19603,-0.25782 60.19603,-0.25781 z M 11.827411,230.60189 C 5.6068364,229.61858 2.7899453,223.63555 1.4438338,208.54733 l -0.64681663,-7.25 H 62.839492 c 34.123361,0 62.259728,0.35152 62.525258,0.78115 0.72893,1.17945 -1.96921,15.23104 -3.69034,19.21885 -0.83083,1.925 -2.9267,4.85 -4.6575,6.5 l -3.14689,3 -49.685011,0.11351 c -27.326755,0.0624 -50.887674,-0.0766 -52.357598,-0.30895 z m 382.311979,-0.30324 c -5.52705,-1.3058 -6.12953,-2.60102 -7.1747,-15.42422 -0.5279,-6.47678 -0.70936,-12.18122 -0.40324,-12.67653 0.32042,-0.51845 26.90005,-0.90057 62.64105,-0.90057 h 62.08446 l -0.69643,9.2255 c -0.87061,11.53267 -3.04268,16.81211 -7.8567,19.09652 -3.17519,1.50672 -8.72579,1.66753 -54.38496,1.57562 -27.96688,-0.0563 -52.36114,-0.45965 -54.20948,-0.89632 z"
     id="path958"
     inkscape:connector-curvature="0" />
</svg>
