<?xml version="1.0" encoding="UTF-8" standalone="no"?>
<!-- Created with Inkscape (http://www.inkscape.org/) -->

<svg
   xmlns:dc="http://purl.org/dc/elements/1.1/"
   xmlns:cc="http://creativecommons.org/ns#"
   xmlns:rdf="http://www.w3.org/1999/02/22-rdf-syntax-ns#"
   xmlns:svg="http://www.w3.org/2000/svg"
   xmlns="http://www.w3.org/2000/svg"
   xmlns:sodipodi="http://sodipodi.sourceforge.net/DTD/sodipodi-0.dtd"
   xmlns:inkscape="http://www.inkscape.org/namespaces/inkscape"
   version="1.1"
   id="svg9097"
   width="512"
   height="512"
   viewBox="0 0 512 512"
   sodipodi:docname="restriction-shield.svg"
   inkscape:version="0.92.4 (5da689c313, 2019-01-14)">
  <metadata
     id="metadata9103">
    <rdf:RDF>
      <cc:Work
         rdf:about="">
        <dc:format>image/svg+xml</dc:format>
        <dc:type
           rdf:resource="http://purl.org/dc/dcmitype/StillImage" />
        <dc:title></dc:title>
      </cc:Work>
    </rdf:RDF>
  </metadata>
  <defs
     id="defs9101" />
  <sodipodi:namedview
     pagecolor="#ffffff"
     bordercolor="#666666"
     borderopacity="1"
     objecttolerance="10"
     gridtolerance="10"
     guidetolerance="10"
     inkscape:pageopacity="0"
     inkscape:pageshadow="2"
     inkscape:window-width="1230"
     inkscape:window-height="837"
     id="namedview9099"
     showgrid="false"
     inkscape:zoom="0.4609375"
     inkscape:cx="-347.11864"
     inkscape:cy="256"
     inkscape:window-x="1681"
     inkscape:window-y="212"
     inkscape:window-maximized="0"
     inkscape:current-layer="svg9097" />
  <path
     style="fill:#ffffff;fill-opacity:1"
     d="M 244.5,507.83663 C 234.74715,502.85101 208.17881,484.86899 194.35182,473.89527 177.97973,460.90163 150.18926,433.13985 137.39775,417 94.848948,363.3135 68.073389,301.78171 52.108342,221 46.432353,192.28 43.177507,165.93973 40.020133,123.17457 c -1.083217,-14.67167 -0.60026,-16.76638 5.551185,-24.076957 3.980698,-4.730791 7.158131,-5.953587 22.432402,-8.632836 20.252496,-3.552476 28.417769,-6.60207 51.95301,-19.403583 13.85201,-7.53452 26.95693,-15.22239 41.04763,-24.080181 C 187.6978,30.200804 218.97721,13.394469 236.5,6.41744 c 20.20279,-8.044123 25.83391,-7.061448 61.5,10.732229 11.825,5.899449 28.7,15.09835 37.5,20.442003 43.08375,26.161885 52.87614,31.919356 63.70441,37.45522 17.26974,8.829009 28.25185,12.692021 43.8706,15.431695 7.54077,1.32272 15.24226,3.044962 17.11443,3.827205 3.82776,1.599342 7.94318,6.073688 10.87836,11.827108 1.96442,3.85058 1.96415,3.96544 -0.0679,29.11647 -6.43025,79.58866 -19.02894,135.69027 -43.12734,192.04483 -20.1224,47.05658 -45.0087,84.02922 -80.28628,119.27829 -21.71857,21.70101 -40.15997,36.58014 -64.58629,52.11034 -21.26645,13.52115 -27.19785,14.93141 -38.5,9.1538 z m 33.27633,-152.35369 c 11.47859,-2.17745 19.22136,-4.85986 31.72367,-10.99037 13.59944,-6.66848 21.44341,-12.56353 33.67834,-25.31058 14.88538,-15.50845 24.14871,-32.3586 29.43916,-53.55033 3.08043,-12.33914 4.23716,-33.2399 2.46694,-44.57448 C 368.9068,181.50231 344.62395,147.47811 310.15242,130.07694 293.71289,121.7783 279.20084,118.15541 259,117.30692 c -11.38093,-0.47803 -15.18678,-0.22954 -24.24601,1.58308 -25.37196,5.07656 -45.08934,15.45437 -62.85582,33.08279 -24.71746,24.52538 -37.06822,55.87924 -35.62186,90.43029 2.31318,55.25771 41.11324,100.91124 95.72369,112.6319 11.01265,2.36357 34.46808,2.5931 45.77633,0.44796 z m -36.54377,-34.53176 c -8.94254,-1.59541 -31.10644,-11.07281 -31.97274,-13.67171 -0.21276,-0.63829 7.73076,-9.68561 17.65227,-20.10514 19.56137,-20.54328 90.52971,-90.81667 95.87191,-94.93309 3.1868,-2.45559 3.32576,-2.47441 4.6946,-0.63587 2.56658,3.44727 10.31955,22.79064 11.5812,28.89463 2.10634,10.19077 1.64824,28.71836 -0.93846,37.95516 -8.20701,29.30625 -29.81913,51.26583 -59.62134,60.57988 -7.97924,2.49374 -28.20185,3.53351 -37.26744,1.91614 z M 181.02632,275.75 c -7.15322,-14.51112 -9.18414,-23.18051 -9.19481,-39.25 -0.007,-11.08604 0.37347,-14.29388 2.58665,-21.78832 8.89785,-30.13041 30.24416,-51.05861 60.83358,-59.64202 5.72917,-1.6076 10.27277,-2.06966 20.35195,-2.06966 14.57299,0 20.31611,1.12736 33.44686,6.56554 10.35433,4.28831 14.63654,7.39117 13.34763,9.67161 C 301.39764,171.00737 187.31247,286 186.55676,286 c -0.26275,0 -2.75145,-4.6125 -5.53044,-10.25 z"
     id="path9107"
     inkscape:connector-curvature="0" />
</svg>
