<?xml version="1.0" encoding="UTF-8" standalone="no"?>
<!-- Created with Inkscape (http://www.inkscape.org/) -->

<svg
   xmlns:dc="http://purl.org/dc/elements/1.1/"
   xmlns:cc="http://creativecommons.org/ns#"
   xmlns:rdf="http://www.w3.org/1999/02/22-rdf-syntax-ns#"
   xmlns:svg="http://www.w3.org/2000/svg"
   xmlns="http://www.w3.org/2000/svg"
   xmlns:sodipodi="http://sodipodi.sourceforge.net/DTD/sodipodi-0.dtd"
   xmlns:inkscape="http://www.inkscape.org/namespaces/inkscape"
   version="1.1"
   id="svg9744"
   width="512"
   height="512"
   viewBox="0 0 512 512"
   sodipodi:docname="search-2.svg"
   inkscape:version="0.92.4 (5da689c313, 2019-01-14)">
  <metadata
     id="metadata9750">
    <rdf:RDF>
      <cc:Work
         rdf:about="">
        <dc:format>image/svg+xml</dc:format>
        <dc:type
           rdf:resource="http://purl.org/dc/dcmitype/StillImage" />
        <dc:title></dc:title>
      </cc:Work>
    </rdf:RDF>
  </metadata>
  <defs
     id="defs9748" />
  <sodipodi:namedview
     pagecolor="#ffffff"
     bordercolor="#666666"
     borderopacity="1"
     objecttolerance="10"
     gridtolerance="10"
     guidetolerance="10"
     inkscape:pageopacity="0"
     inkscape:pageshadow="2"
     inkscape:window-width="1356"
     inkscape:window-height="836"
     id="namedview9746"
     showgrid="false"
     inkscape:zoom="0.4609375"
     inkscape:cx="-347.11864"
     inkscape:cy="256"
     inkscape:window-x="1774"
     inkscape:window-y="637"
     inkscape:window-maximized="0"
     inkscape:current-layer="svg9744" />
  <path
     style="fill:#ffffff;fill-opacity:1"
     d="M 32.5,509.59785 C 15.93324,504.34473 4.5763527,490.79723 1.9151947,473.1136 -0.54836044,456.74306 4.9397815,438.12619 15.951398,425.5 24.230248,416.00727 121.42052,318.67525 132.5,308.78142 c 15.75944,-14.07297 25.39755,-17.71411 47.01501,-17.76161 l 9.015,-0.0198 12.38985,-12.41967 12.38985,-12.41967 -6.03029,-9.33033 C 195.45608,238.53677 188.43054,221.46372 183.89379,200 c -2.97669,-14.083 -3.29141,-46.49736 -0.58968,-60.73577 6.63986,-34.99284 21.94285,-64.610114 45.63905,-88.329411 27.33304,-27.359685 59.67779,-43.326195 97.03061,-47.897732 22.86907,-2.7989 53.04762,0.355018 75.20261,7.859323 45.60783,15.448213 86.57349,57.318794 101.83342,104.0829 6.151,18.84975 7.49817,28.36329 7.4372,52.52069 -0.0565,22.39141 -1.17723,31.44376 -5.91842,47.80464 -14.06994,48.55241 -55.65049,91.62176 -104.48833,108.22953 -19.88624,6.76251 -36.07654,8.92592 -61.04025,8.15644 -32.90953,-1.01441 -55.63718,-8.19679 -83.37741,-26.3489 L 245.74518,298.87832 233.9902,311.18916 222.23522,323.5 221.54088,334 c -1.26147,19.07612 -4.39932,29.44745 -12.21035,40.35804 -4.25812,5.94782 -70.1279,72.54347 -103.70838,104.85121 C 81.01246,502.88622 76.891916,505.78031 62.539901,509.46841 55.331838,511.32069 38.16658,511.39466 32.5,509.59785 Z M 364.12164,282.5469 c 25.81274,-3.43645 48.47397,-15.4966 67.52068,-35.93404 18.65553,-20.01769 27.87192,-40.32462 30.57183,-67.36047 2.17658,-21.79536 -1.6196,-44.01702 -10.74211,-62.88091 -14.58139,-30.151971 -41.27747,-52.814025 -72.85087,-61.842417 -11.84875,-3.388141 -34.10589,-5.104182 -46.56051,-3.589847 -18.92224,2.30072 -39.79095,10.675643 -54.81916,21.999739 -9.30131,7.008747 -22.54091,20.666559 -28.40599,29.303265 -5.03927,7.42066 -11.64223,21.40542 -15.46671,32.75778 -2.83904,8.42724 -2.86336,8.70543 -2.84144,32.5 0.0218,23.67483 0.0606,24.11517 2.86165,32.5 6.40524,19.17372 16.42655,35.59216 29.76595,48.76713 28.58382,28.23147 61.05085,39.09376 100.96668,33.77977 z"
     id="path10297"
     inkscape:connector-curvature="0" />
</svg>
