<?xml version="1.0" encoding="UTF-8" standalone="no"?>
<!-- Created with Inkscape (http://www.inkscape.org/) -->

<svg
   xmlns:dc="http://purl.org/dc/elements/1.1/"
   xmlns:cc="http://creativecommons.org/ns#"
   xmlns:rdf="http://www.w3.org/1999/02/22-rdf-syntax-ns#"
   xmlns:svg="http://www.w3.org/2000/svg"
   xmlns="http://www.w3.org/2000/svg"
   xmlns:sodipodi="http://sodipodi.sourceforge.net/DTD/sodipodi-0.dtd"
   xmlns:inkscape="http://www.inkscape.org/namespaces/inkscape"
   version="1.1"
   id="svg11006"
   width="512"
   height="512"
   viewBox="0 0 512 512"
   sodipodi:docname="website-optimization.svg"
   inkscape:version="0.92.4 (5da689c313, 2019-01-14)">
  <metadata
     id="metadata11012">
    <rdf:RDF>
      <cc:Work
         rdf:about="">
        <dc:format>image/svg+xml</dc:format>
        <dc:type
           rdf:resource="http://purl.org/dc/dcmitype/StillImage" />
        <dc:title></dc:title>
      </cc:Work>
    </rdf:RDF>
  </metadata>
  <defs
     id="defs11010" />
  <sodipodi:namedview
     pagecolor="#ffffff"
     bordercolor="#666666"
     borderopacity="1"
     objecttolerance="10"
     gridtolerance="10"
     guidetolerance="10"
     inkscape:pageopacity="0"
     inkscape:pageshadow="2"
     inkscape:window-width="1552"
     inkscape:window-height="1223"
     id="namedview11008"
     showgrid="false"
     inkscape:zoom="0.4609375"
     inkscape:cx="256"
     inkscape:cy="256"
     inkscape:window-x="1908"
     inkscape:window-y="362"
     inkscape:window-maximized="0"
     inkscape:current-layer="svg11006" />
  <path
     style="fill:#ffffff;fill-opacity:1"
     d="m 21.021683,478.88438 c -1.363075,-0.54387 -4.812272,-2.751 -7.664884,-4.90475 -3.9473634,-2.98029 -6.0431425,-5.62809 -8.7716828,-11.08212 L 1,455.73129 1.0769838,272.11564 C 1.1193249,171.12704 1.4688382,80.386004 1.8536799,70.468897 2.5183816,53.339993 2.6877422,52.208543 5.2384734,47.856049 8.524785,42.248382 13.9049,37.40235 19.949195,34.605656 L 24.5,32.5 l 231.15738,-0.311148 231.15739,-0.311148 5.84261,2.973508 C 499.93456,38.554816 505.12731,43.870948 508.43139,51 l 2.54907,5.5 0.01,199.66709 c 0.01,199.31969 0.006,199.67545 -2.04785,204.46733 -2.93277,6.84188 -8.12879,12.75331 -14.32693,16.29953 L 489.25655,480 256.37827,479.93661 c -151.01248,-0.0411 -233.749495,-0.411 -235.356587,-1.05223 z M 343.64448,449.68886 c 1.04704,-1.04705 -1.24333,-9.86428 -4.75111,-18.29037 -15.17739,-36.45771 -53.84173,-59.69368 -92.14337,-55.37506 -32.95067,3.71528 -61.63418,25.72529 -74.09363,56.85499 -1.99138,4.97543 -3.90914,10.85012 -4.2617,13.05488 l -0.64101,4.00866 13.87317,0.37346 c 23.77358,0.63998 161.28289,0.1082 162.01765,-0.62656 z M 34.661996,428.93457 c 4.438713,-6.70735 6.310697,-7.22964 28.203748,-7.86901 L 82.231489,420.5 l 4.186848,-12 c 2.302766,-6.6 6.593845,-17.05782 9.53573,-23.2396 L 101.30295,374.0208 89.351712,361.73976 C 70.872145,342.75024 69.440325,337.59909 79.329204,325.68262 c 9.759123,-11.76012 37.520136,-38.71175 41.941756,-40.71894 5.29587,-2.40404 11.29063,-2.48666 15.50475,-0.21368 1.78447,0.9625 8.87893,7.08337 15.76546,13.60193 l 12.52096,11.85194 12.57449,-5.74662 c 6.91597,-3.16064 17.36449,-7.43134 23.21894,-9.49044 L 211.5,291.22298 212,271.86149 c 0.53933,-20.88461 0.72445,-21.65634 6.38727,-26.62837 3.06819,-2.6939 4.43529,-3.1221 11.97236,-3.74993 4.67976,-0.38983 19.71404,-0.5419 33.40952,-0.33794 24.19062,0.36026 24.99827,0.43778 28.31586,2.7178 7.20521,4.95179 7.36102,5.49313 7.91499,27.49869 l 0.5,19.86175 10.64444,3.74357 c 5.85445,2.05897 16.30873,6.33219 23.23175,9.49605 l 12.5873,5.75247 13.4981,-12.62488 c 7.42395,-6.94368 14.66146,-13.06719 16.08335,-13.60779 4.00509,-1.52273 9.53485,-1.1297 14.2568,1.01332 4.54154,2.06114 35.07301,31.76441 42.96173,41.79635 8.6695,11.02483 7.10595,16.12338 -10.52514,34.32119 l -12.52526,12.92785 6.05758,12.72919 c 3.33166,7.00105 7.70775,17.5141 9.72463,23.36233 l 3.66706,10.63315 19.16883,0.42406 c 21.81091,0.48252 23.467,0.95128 28.24265,7.99422 L 480.5,433.5 l 0.2568,-159 c 0.14124,-87.45 0.0425,-159.56349 -0.21946,-160.25219 -0.37989,-0.99883 -45.85738,-1.20117 -224.7568,-1 L 31.5,113.5 31.246942,273.25 C 31.10776,361.1125 31.213876,433 31.482754,433 c 0.268878,0 1.699537,-1.82944 3.179242,-4.06543 z M 358.39764,89.960158 c 10.88407,-7.366683 12.8095,-21.371976 4.23539,-30.807476 -4.01239,-4.415485 -9.36543,-6.402713 -16.09317,-5.974323 -10.20105,0.649554 -17.5258,7.606896 -18.33955,17.419652 -0.76016,9.16658 3.14529,16.355326 11.29969,20.799309 4.51387,2.459967 14.23165,1.720932 18.89764,-1.437162 z m 54.69508,0.713069 c 13.1472,-6.940911 14.55791,-25.118597 2.62045,-33.766043 -9.14255,-6.622832 -17.78653,-5.929066 -25.78511,2.069517 -4.97047,4.970469 -7.51396,11.742955 -6.30289,16.782555 3.39412,14.123895 17.47002,21.247923 29.46755,14.913971 z m 56.36569,0.05184 c 10.79389,-6.113641 14.02218,-21.552361 6.33695,-30.305359 -10.33061,-11.765906 -28.38064,-9.229859 -34.24763,4.811824 -2.96259,7.09047 -1.01332,17.44055 4.14826,22.02615 6.62551,5.886163 16.85626,7.379022 23.76242,3.467385 z"
     id="path11559"
     inkscape:connector-curvature="0" />
</svg>
